<?xml version="1.0" standalone="no"?>
<!DOCTYPE svg PUBLIC "-//W3C//DTD SVG 20010904//EN"
 "http://www.w3.org/TR/2001/REC-SVG-20010904/DTD/svg10.dtd">
<svg version="1.0" xmlns="http://www.w3.org/2000/svg"
 width="668.000000pt" height="668.000000pt" viewBox="0 0 668.000000 668.000000"
 preserveAspectRatio="xMidYMid meet">
<metadata>
Created by potrace 1.14, written by Peter Selinger 2001-2017
</metadata>
<g transform="translate(0.000000,668.000000) scale(0.100000,-0.100000)"
fill="#000000" stroke="none">
<path d="M311 6661 c-23 -41 -9 -102 26 -115 14 -6 13 -2 -4 14 -15 14 -23 32
-23 56 0 32 2 34 26 28 22 -6 25 -4 22 12 -5 26 -34 29 -47 5z"/>
<path d="M4150 6670 c0 -6 45 -10 114 -10 66 0 117 4 121 10 4 6 -37 10 -114
10 -74 0 -121 -4 -121 -10z"/>
<path d="M6375 6670 c-8 -12 21 -56 43 -65 12 -4 10 0 -5 15 -29 26 -31 45 -4
30 29 -15 68 -12 96 6 14 9 25 14 25 12 0 -11 -46 -56 -65 -63 -18 -7 -18 -9
-2 -12 16 -4 22 -16 18 -37 -1 -5 5 -4 13 3 9 7 13 17 10 22 -3 5 4 23 16 39
30 43 12 83 -20 45 -7 -8 -27 -15 -46 -15 -18 0 -39 7 -48 15 -17 18 -23 18
-31 5z"/>
<path d="M2051 6654 c0 -11 3 -14 6 -6 3 7 2 16 -1 19 -3 4 -6 -2 -5 -13z"/>
<path d="M920 6632 c0 -6 12 -20 26 -31 36 -29 95 -28 120 1 l19 22 -25 -17
c-38 -26 -86 -22 -115 9 -14 15 -25 22 -25 16z"/>
<path d="M2589 6623 c-13 -17 -13 -17 6 -3 11 8 22 16 24 17 2 2 0 3 -6 3 -6
0 -17 -8 -24 -17z"/>
<path d="M2680 6620 c11 -11 23 -20 27 -20 3 0 -2 9 -12 20 -10 11 -22 20 -27
20 -4 0 1 -9 12 -20z"/>
<path d="M730 6626 c0 -2 14 -9 30 -15 24 -8 30 -7 30 5 0 9 -10 14 -30 14
-16 0 -30 -2 -30 -4z"/>
<path d="M6173 6605 c-16 -18 -16 -22 1 -28 11 -4 13 -1 9 10 -5 12 -1 14 15
9 17 -6 21 -4 16 8 -8 20 -25 20 -41 1z"/>
<path d="M2117 6589 c12 -12 25 -20 28 -17 3 3 -7 13 -22 23 l-28 17 22 -23z"/>
<path d="M360 6581 c0 -11 6 -22 13 -24 9 -4 8 -8 -3 -16 -12 -9 -10 -11 13
-11 31 0 30 -2 16 39 -12 34 -39 42 -39 12z"/>
<path d="M2665 6590 c-3 -5 -1 -10 4 -10 6 0 11 5 11 10 0 6 -2 10 -4 10 -3 0
-8 -4 -11 -10z"/>
<path d="M1418 6573 c7 -3 16 -2 19 1 4 3 -2 6 -13 5 -11 0 -14 -3 -6 -6z"/>
<path d="M6215 6569 c-17 -6 -16 -8 7 -8 15 -1 29 3 32 7 6 11 -14 11 -39 1z"/>
<path d="M695 6550 c-3 -6 -3 -10 1 -10 3 0 -4 -9 -17 -21 -23 -19 -23 -20 -2
-10 12 6 31 11 42 11 26 0 27 12 1 27 -12 8 -21 9 -25 3z"/>
<path d="M3902 6530 c7 -10 14 -18 15 -16 6 6 -9 36 -18 36 -5 0 -4 -9 3 -20z"/>
<path d="M6255 6540 c-3 -5 -1 -10 4 -10 6 0 11 5 11 10 0 6 -2 10 -4 10 -3 0
-8 -4 -11 -10z"/>
<path d="M2580 6530 c0 -5 5 -10 10 -10 6 0 10 5 10 10 0 6 -4 10 -10 10 -5 0
-10 -4 -10 -10z"/>
<path d="M861 6514 c19 -23 12 -84 -12 -111 -25 -26 -15 -32 13 -6 17 15 18
15 18 -6 0 -24 19 -24 30 0 4 8 12 24 18 36 8 16 8 30 1 52 -6 17 -12 31 -13
31 0 0 -16 4 -34 10 -29 8 -32 7 -21 -6z"/>
<path d="M1695 6505 c-27 -26 -31 -40 -15 -50 14 -9 74 50 65 64 -10 17 -24
13 -50 -14z"/>
<path d="M1793 6523 c-8 -3 -13 -24 -13 -58 0 -48 -3 -54 -22 -58 -21 -4 -20
-4 3 -6 29 -1 67 25 70 49 6 57 -8 83 -38 73z"/>
<path d="M1070 6501 c0 -6 5 -13 10 -16 6 -3 10 1 10 9 0 9 -4 16 -10 16 -5 0
-10 -4 -10 -9z"/>
<path d="M5991 6495 c14 -23 19 -67 9 -84 -8 -16 -7 -18 8 -14 10 2 24 -3 31
-11 12 -14 17 -13 45 9 41 31 80 32 100 3 13 -18 16 -19 16 -5 0 22 -39 67
-59 67 -9 0 -27 -9 -41 -20 -14 -11 -31 -20 -37 -20 -34 0 8 57 50 69 24 7 26
9 10 10 -28 1 -83 -45 -83 -70 0 -10 -6 -19 -13 -19 -9 0 -12 9 -9 28 2 18 -3
35 -15 48 -10 11 -15 15 -12 9z"/>
<path d="M6240 6500 c-9 -51 29 -100 78 -100 38 0 44 -8 27 -34 -8 -11 -14
-34 -14 -51 1 -28 2 -27 9 8 8 41 30 64 73 73 l28 7 -21 21 c-11 12 -20 27
-20 33 0 20 -37 43 -69 43 -27 0 -30 -2 -22 -18 10 -19 10 -72 0 -72 -20 0
-58 45 -62 73 -2 17 -5 25 -7 17z"/>
<path d="M3920 6490 c0 -5 5 -10 11 -10 5 0 7 5 4 10 -3 6 -8 10 -11 10 -2 0
-4 -4 -4 -10z"/>
<path d="M634 6468 c-8 -14 -28 -18 -119 -20 l-110 -3 -3 -102 c-2 -90 -5
-103 -20 -103 -31 0 -61 29 -64 62 l-3 32 -18 -27 c-18 -28 -18 -42 4 -127 3
-9 -5 -16 -18 -18 -17 -3 -23 2 -23 17 0 11 -12 29 -27 40 -16 12 -33 25 -40
31 -7 5 -14 6 -17 1 -3 -4 6 -13 21 -20 14 -6 23 -15 19 -18 -3 -4 3 -16 14
-28 12 -13 25 -35 30 -51 6 -23 8 -25 9 -8 1 30 50 40 71 15 9 -10 27 -21 42
-24 26 -7 26 -6 18 24 -10 34 -20 50 -20 31 0 -20 -35 -13 -58 11 -13 14 -22
36 -22 55 0 38 3 39 37 12 14 -11 35 -20 46 -20 15 0 18 -5 14 -21 -4 -17 -3
-19 6 -10 18 18 37 13 37 -9 0 -11 7 -23 15 -27 20 -7 26 -1 28 26 1 19 7 21
75 21 53 0 71 -3 66 -12 -4 -6 -3 -8 4 -4 6 3 17 -1 26 -10 19 -19 36 -11 29
14 -2 10 3 24 11 31 20 17 20 42 2 86 -15 35 -15 35 12 35 15 1 38 7 51 14 24
13 24 14 4 20 -28 9 -44 29 -53 69 -7 27 -8 28 -9 7 0 -14 8 -40 19 -57 l20
-33 -24 0 c-31 0 -54 27 -64 76 -7 32 -10 36 -18 22z m-72 -78 l23 -20 -24
-20 c-18 -15 -19 -20 -7 -20 9 0 16 5 16 10 0 6 5 10 11 10 6 0 9 -7 5 -15 -3
-8 -1 -15 4 -15 6 0 10 -16 10 -35 l0 -35 -65 0 c-66 0 -74 5 -56 39 6 10 6
23 0 32 -7 11 -9 11 -9 -4 0 -16 -2 -17 -15 -3 -21 20 -20 50 1 42 12 -4 15
-2 10 9 -3 8 -8 21 -11 28 -9 22 79 20 107 -3z m114 -87 c17 -37 18 -73 4 -73
-6 0 -13 8 -16 18 -3 9 -10 25 -15 34 -5 10 -9 37 -8 60 0 40 1 41 11 18 6
-14 17 -39 24 -57z m-296 -163 c0 -5 -4 -10 -9 -10 -6 0 -13 5 -16 10 -3 6 1
10 9 10 9 0 16 -4 16 -10z"/>
<path d="M2470 6430 c-21 -7 -21 -8 -5 -9 11 0 27 4 35 9 18 11 5 11 -30 0z"/>
<path d="M3815 6390 c3 -5 -1 -21 -10 -34 -9 -14 -15 -37 -12 -53 l4 -28 2 31
c0 18 11 40 26 54 30 29 32 40 4 40 -11 0 -17 -4 -14 -10z"/>
<path d="M4263 6386 c6 -16 -16 -40 -26 -29 -4 3 -7 -8 -7 -25 0 -22 5 -32 15
-32 8 0 15 -4 15 -10 0 -18 17 -10 28 13 9 19 11 19 11 3 1 -12 6 -16 16 -13
8 4 17 2 20 -3 10 -16 48 -5 55 16 4 10 4 28 0 39 -7 19 -7 19 -14 -2 -10 -32
-28 -29 -20 3 6 23 4 25 -13 20 -16 -5 -22 -1 -28 16 -7 21 -8 20 -12 -9 -5
-41 -23 -43 -23 -3 0 17 -5 30 -11 30 -6 0 -9 -6 -6 -14z"/>
<path d="M5925 6390 c-3 -5 -1 -10 4 -10 6 0 11 5 11 10 0 6 -2 10 -4 10 -3 0
-8 -4 -11 -10z"/>
<path d="M5890 6368 c0 -4 14 -8 30 -8 17 0 30 2 30 4 0 2 -13 6 -30 8 -16 3
-30 1 -30 -4z"/>
<path d="M2356 6361 c-4 -5 3 -11 15 -13 22 -3 22 -4 -6 -36 -33 -40 -50 -108
-28 -116 22 -9 22 -8 10 23 -14 38 4 84 31 79 9 -2 22 3 28 11 10 12 17 13 37
4 77 -35 68 -132 -13 -154 l-35 -9 40 5 c37 4 38 3 21 -10 -11 -8 -17 -18 -13
-21 9 -9 64 6 78 22 9 12 6 14 -19 14 l-31 0 20 34 c27 46 18 98 -19 117 -15
7 -36 21 -47 30 -26 22 -62 32 -69 20z"/>
<path d="M5580 6322 c-34 -22 -59 -56 -59 -77 0 -5 7 4 16 20 17 32 31 45 51
45 21 0 13 -27 -10 -35 l-23 -8 23 -4 c30 -6 47 -49 34 -85 -14 -39 8 -37 55
5 33 31 35 37 29 70 -5 25 -16 43 -34 54 -15 9 -31 22 -37 28 -7 8 -20 5 -45
-13z m89 -38 c25 -32 26 -52 5 -82 -20 -29 -29 -28 -44 8 -10 24 -10 33 0 45
10 12 10 19 2 27 -16 16 -15 28 2 28 8 0 24 -12 35 -26z"/>
<path d="M887 6329 c-21 -12 -14 -29 12 -29 10 0 21 9 24 20 6 22 -8 25 -36 9z"/>
<path d="M950 6327 c0 -3 12 -12 26 -22 15 -9 23 -12 20 -6 -7 11 -46 35 -46
28z"/>
<path d="M6118 6323 c7 -3 16 -2 19 1 4 3 -2 6 -13 5 -11 0 -14 -3 -6 -6z"/>
<path d="M2218 6313 c7 -3 16 -2 19 1 4 3 -2 6 -13 5 -11 0 -14 -3 -6 -6z"/>
<path d="M2175 6300 c-3 -6 1 -7 9 -4 18 7 21 14 7 14 -6 0 -13 -4 -16 -10z"/>
<path d="M2280 6265 c4 -20 11 -39 14 -43 9 -8 -5 62 -15 72 -4 5 -4 -8 1 -29z"/>
<path d="M3760 6270 c0 -5 5 -10 10 -10 6 0 10 5 10 10 0 6 -4 10 -10 10 -5 0
-10 -4 -10 -10z"/>
<path d="M6456 6255 c-11 -8 -15 -15 -9 -15 6 0 16 7 23 15 16 19 11 19 -14 0z"/>
<path d="M4298 6243 c6 -2 18 -2 25 0 6 3 1 5 -13 5 -14 0 -19 -2 -12 -5z"/>
<path d="M5257 6243 c-4 -3 -7 -25 -7 -47 l0 -41 -20 25 c-10 14 -22 21 -27
17 -4 -5 -26 -43 -49 -85 l-41 -77 -93 -21 c-52 -11 -95 -25 -97 -31 -3 -7 19
-35 46 -65 28 -30 51 -63 51 -75 0 -12 5 -23 12 -25 9 -3 9 -23 -1 -86 -6 -45
-9 -86 -6 -92 3 -5 34 4 70 20 l65 29 0 -29 c0 -17 4 -30 9 -30 6 0 7 16 4 35
-5 30 -3 35 20 40 16 4 39 -1 65 -14 45 -23 132 -54 137 -49 1 2 -3 46 -10 98
l-12 95 64 70 c35 38 62 74 60 80 -2 5 -35 16 -73 22 -108 19 -113 22 -128 52
-14 26 -14 29 7 39 12 6 29 13 37 15 8 3 3 6 -12 6 -43 1 -70 38 -66 89 2 23
3 42 2 42 0 0 -4 -3 -7 -7z m-2 -165 l40 -73 80 -14 c44 -7 82 -15 84 -18 3
-2 -21 -30 -53 -62 l-59 -59 7 -69 c4 -37 10 -78 13 -91 5 -22 3 -21 -68 13
-40 19 -80 35 -89 35 -9 0 -49 -16 -89 -35 -71 -34 -73 -35 -68 -13 3 13 9 54
13 91 l7 69 -59 59 c-32 32 -56 60 -53 62 2 3 40 11 84 18 l80 14 40 73 c22
39 42 72 45 72 3 0 23 -33 45 -72z m45 27 c0 -12 -29 -3 -34 10 -4 13 -2 14
14 5 11 -6 20 -13 20 -15z"/>
<path d="M168 6213 c6 -2 18 -2 25 0 6 3 1 5 -13 5 -14 0 -19 -2 -12 -5z"/>
<path d="M5338 6206 c-28 -21 -21 -26 12 -10 17 9 30 17 30 20 0 9 -26 3 -42
-10z"/>
<path d="M111 6184 c-12 -15 -21 -34 -21 -43 1 -9 7 -2 14 15 8 18 22 37 33
43 10 6 13 11 6 11 -6 0 -21 -12 -32 -26z"/>
<path d="M530 6166 c0 -2 7 -6 15 -10 8 -3 15 -1 15 4 0 6 -7 10 -15 10 -8 0
-15 -2 -15 -4z"/>
<path d="M2205 6150 c-3 -5 -1 -10 4 -10 6 0 11 5 11 10 0 6 -2 10 -4 10 -3 0
-8 -4 -11 -10z"/>
<path d="M160 6129 c0 -5 5 -7 10 -4 6 3 10 8 10 11 0 2 -4 4 -10 4 -5 0 -10
-5 -10 -11z"/>
<path d="M460 6121 c0 -5 -7 -17 -16 -25 -8 -9 -11 -16 -6 -16 6 0 17 -3 26
-6 12 -5 16 0 16 19 0 14 -4 29 -10 32 -5 3 -10 2 -10 -4z"/>
<path d="M6195 6076 c10 -14 19 -26 22 -26 7 0 -17 39 -28 46 -6 3 -3 -5 6
-20z"/>
<path d="M2194 6025 c-4 -8 -3 -30 0 -49 5 -24 15 -38 41 -52 32 -17 36 -17
51 -2 15 15 14 17 -12 30 -18 8 -30 23 -32 37 -4 23 -24 51 -37 51 -3 0 -8 -7
-11 -15z"/>
<path d="M444 5985 c-13 -10 -14 -13 -3 -10 9 3 21 -1 28 -9 11 -13 14 -13 30
2 30 30 -19 45 -55 17z"/>
<path d="M754 5964 c9 -8 19 -33 22 -55 9 -52 24 -60 24 -12 0 42 -23 83 -46
83 -14 0 -14 -2 0 -16z"/>
<path d="M6079 5961 c23 -21 85 -29 95 -13 2 4 -11 6 -30 4 -21 -3 -45 2 -62
12 l-27 17 24 -20z"/>
<path d="M2113 5945 c-6 -14 -8 -25 -4 -25 4 0 15 -14 25 -30 9 -17 21 -28 26
-25 16 10 20 -12 7 -44 -12 -33 -27 -42 -27 -16 0 8 -4 15 -10 15 -17 0 -11
-28 8 -34 10 -3 26 -19 35 -36 10 -16 23 -30 29 -30 6 0 2 10 -10 23 -12 13
-22 34 -22 48 0 31 26 69 48 69 9 0 24 4 31 9 10 6 0 8 -27 4 -49 -7 -91 19
-71 43 7 9 6 18 -3 33 -16 27 -20 26 -35 -4z"/>
<path d="M474 5927 c-9 -24 -1 -52 16 -52 10 0 14 8 12 25 -3 32 -19 48 -28
27z"/>
<path d="M1450 5899 c-14 -18 -33 -41 -42 -51 -17 -17 -17 -18 2 -18 11 0 20
5 20 11 0 5 4 8 9 5 5 -3 15 2 22 12 13 15 12 16 -3 3 -25 -19 -22 0 3 27 11
13 19 27 17 33 -2 6 -15 -4 -28 -22z"/>
<path d="M550 5877 c-19 -40 -79 -56 -119 -32 l-26 16 24 -20 c13 -12 29 -21
36 -21 8 0 17 -9 20 -20 9 -28 21 -25 34 8 6 15 20 39 32 53 12 15 20 31 18
37 -2 6 -11 -4 -19 -21z"/>
<path d="M780 5751 c5 -11 10 -30 10 -42 0 -17 3 -20 11 -12 8 8 6 19 -5 42
-9 17 -19 31 -22 31 -2 0 0 -9 6 -19z"/>
<path d="M6638 5763 c6 -2 18 -2 25 0 6 3 1 5 -13 5 -14 0 -19 -2 -12 -5z"/>
<path d="M2077 5702 c-20 -22 -23 -66 -4 -59 6 2 11 14 9 26 -3 16 3 24 17 28
12 3 21 9 21 14 0 15 -26 10 -43 -9z"/>
<path d="M2233 5713 c9 -2 25 -2 35 0 9 3 1 5 -18 5 -19 0 -27 -2 -17 -5z"/>
<path d="M2028 5633 c7 -3 16 -2 19 1 4 3 -2 6 -13 5 -11 0 -14 -3 -6 -6z"/>
<path d="M5069 5609 c-34 -37 -73 -38 -111 -2 -15 15 -28 22 -28 16 0 -20 51
-53 81 -53 27 0 100 52 89 63 -3 3 -17 -8 -31 -24z"/>
<path d="M5281 5627 c14 -7 35 -18 45 -26 10 -7 6 -2 -9 13 -15 14 -36 26 -45
25 -12 0 -9 -4 9 -12z"/>
<path d="M5118 5623 c6 -2 18 -2 25 0 6 3 1 5 -13 5 -14 0 -19 -2 -12 -5z"/>
<path d="M5214 5608 l-19 -23 25 20 c14 11 27 21 29 22 2 2 0 3 -6 3 -5 0 -18
-10 -29 -22z"/>
<path d="M1970 5563 c0 -32 -5 -46 -22 -57 -32 -23 -57 -20 -68 8 -11 31 -62
67 -79 57 -8 -6 -2 -10 19 -14 24 -5 35 -16 49 -47 10 -22 21 -37 24 -33 10
10 8 -20 -3 -37 -6 -9 -5 -17 3 -23 8 -6 7 -7 -3 -4 -9 2 -14 14 -13 28 2 21
1 22 -7 7 -6 -10 -18 -22 -28 -28 -11 -8 -12 -10 -2 -7 8 3 29 -6 47 -19 l32
-24 12 21 c10 19 9 21 -5 16 -26 -10 -20 37 10 72 27 32 52 38 85 20 27 -14
43 -57 28 -75 -6 -7 -8 -18 -4 -24 11 -17 35 22 29 46 -3 12 -1 25 5 29 15 9
4 25 -14 19 -13 -5 -63 21 -77 40 -3 5 -4 15 -1 22 2 7 0 21 -6 31 -8 15 -10
10 -11 -24z"/>
<path d="M3615 5570 c-27 -30 -15 -31 25 -4 28 20 31 24 14 24 -12 0 -29 -9
-39 -20z"/>
<path d="M3641 5527 c-35 -23 -91 -53 -125 -67 -37 -16 -62 -32 -64 -43 -3
-15 0 -16 15 -8 34 18 113 51 122 51 21 0 22 -23 1 -37 -12 -9 -28 -30 -36
-49 -8 -20 -22 -34 -36 -37 -17 -3 -14 -5 10 -6 28 -1 32 2 32 24 0 34 45 79
71 72 10 -3 19 -2 19 3 0 4 -9 10 -20 13 -20 5 -29 37 -10 37 18 0 120 72 114
81 -9 16 -28 9 -93 -34z"/>
<path d="M4937 5554 c-3 -4 0 -19 8 -35 20 -37 19 -51 -6 -83 -43 -55 -139
-23 -139 48 0 16 -3 27 -6 23 -8 -8 5 -97 14 -95 4 1 26 -4 49 -12 35 -11 45
-11 58 0 12 10 19 10 27 2 7 -7 16 -12 22 -12 5 0 2 6 -7 13 -30 22 -6 39 40
29 34 -8 43 -6 66 14 35 30 35 42 1 15 -29 -23 -82 -28 -88 -8 -3 6 -7 26 -10
44 -5 31 -5 32 30 26 35 -6 84 11 84 29 0 5 -10 2 -22 -6 -28 -20 -72 -20 -88
-1 -13 16 -23 19 -33 9z"/>
<path d="M5346 5531 c-3 -4 -16 -7 -28 -6 -13 1 -15 0 -5 -2 11 -3 17 -15 18
-36 l1 -32 7 31 c4 17 11 36 15 42 4 7 5 12 2 12 -3 0 -7 -4 -10 -9z"/>
<path d="M5246 5507 c-11 -8 -17 -18 -15 -23 2 -5 14 1 26 14 24 24 17 30 -11
9z"/>
<path d="M3659 5463 c-13 -16 -12 -17 4 -4 9 7 17 15 17 17 0 8 -8 3 -21 -13z"/>
<path d="M5350 5430 c6 -11 13 -20 16 -20 2 0 0 9 -6 20 -6 11 -13 20 -16 20
-2 0 0 -9 6 -20z"/>
<path d="M865 5393 c18 -75 18 -91 -4 -98 -35 -11 -24 -26 14 -19 28 5 35 3
35 -9 0 -8 3 -17 8 -19 4 -1 21 -25 39 -53 23 -36 29 -52 20 -57 -7 -5 -2 -8
14 -8 14 0 28 3 32 6 3 3 -14 37 -39 75 -36 57 -41 71 -29 76 18 6 34 -12 68
-80 20 -40 26 -45 36 -33 10 12 6 25 -23 70 -20 31 -41 56 -47 56 -6 0 -9 8
-7 18 6 21 -32 94 -51 100 -15 5 -9 -20 17 -76 13 -29 13 -35 1 -43 -18 -11
-37 13 -45 60 -7 39 -20 61 -36 61 -6 0 -7 -11 -3 -27z"/>
<path d="M5112 5400 c-12 -20 -12 -21 13 -4 28 18 31 24 12 24 -7 0 -18 -9
-25 -20z"/>
<path d="M5020 5401 c0 -5 -8 -12 -17 -14 -14 -4 -12 -5 5 -6 13 -1 22 5 22
14 0 8 -2 15 -5 15 -3 0 -5 -4 -5 -9z"/>
<path d="M5248 5403 c7 -3 16 -2 19 1 4 3 -2 6 -13 5 -11 0 -14 -3 -6 -6z"/>
<path d="M5280 5407 c0 -3 12 -12 26 -22 15 -9 23 -12 20 -6 -7 11 -46 35 -46
28z"/>
<path d="M2897 5367 c-15 -12 -27 -29 -27 -36 0 -8 -9 -29 -21 -47 -11 -19
-16 -34 -11 -34 11 0 42 33 42 45 0 5 14 24 32 42 40 41 27 67 -15 30z"/>
<path d="M5182 5378 c-7 -7 -12 -19 -12 -28 0 -9 -5 -21 -12 -28 -8 -8 -8 -12
-1 -12 6 0 14 -11 17 -25 4 -14 12 -25 18 -25 9 0 9 3 0 12 -15 15 -16 72 -2
99 12 22 9 24 -8 7z"/>
<path d="M3650 5350 c12 -16 27 -30 35 -30 8 0 1 13 -17 30 -16 17 -32 30 -34
30 -3 0 4 -13 16 -30z"/>
<path d="M3583 5363 c-23 -9 -14 -33 12 -33 18 0 25 5 25 20 0 19 -12 24 -37
13z"/>
<path d="M504 5335 c-8 -19 5 -46 24 -53 17 -5 14 29 -3 52 -14 18 -15 18 -21
1z"/>
<path d="M4855 5340 c3 -5 12 -7 20 -3 21 7 19 13 -6 13 -11 0 -18 -4 -14 -10z"/>
<path d="M2536 5325 c-11 -8 -15 -15 -9 -15 6 0 16 7 23 15 16 19 11 19 -14 0z"/>
<path d="M2630 5326 c0 -2 8 -10 18 -17 15 -13 16 -12 3 4 -13 16 -21 21 -21
13z"/>
<path d="M5063 5313 c8 -9 28 -13 48 -11 32 3 32 3 -14 14 -41 9 -46 9 -34 -3z"/>
<path d="M1909 5288 c4 -28 6 -29 9 -9 2 13 0 27 -5 32 -6 6 -7 -3 -4 -23z"/>
<path d="M2085 5266 c0 -17 5 -22 18 -18 15 4 16 7 5 13 -8 6 -1 9 21 9 42 0
38 5 -9 13 -31 4 -35 2 -35 -17z"/>
<path d="M570 5250 c-12 -29 -30 -41 -30 -20 0 6 -4 10 -10 10 -18 0 -11 -40
15 -80 14 -22 28 -40 31 -40 3 0 2 5 -1 10 -3 6 1 10 9 10 9 0 16 4 16 9 0 5
10 12 23 16 20 6 20 8 3 12 -10 3 -23 0 -29 -6 -6 -6 -19 -11 -29 -11 -24 0
-23 30 3 75 12 20 19 38 17 41 -3 2 -11 -9 -18 -26z"/>
<path d="M1915 5240 c-3 -5 0 -10 9 -10 8 0 17 -6 19 -12 4 -8 6 -9 6 -2 1 18
-26 37 -34 24z"/>
<path d="M5248 5243 c12 -2 30 -2 40 0 9 3 -1 5 -23 4 -22 0 -30 -2 -17 -4z"/>
<path d="M2049 5228 c0 -2 -2 -11 -4 -21 -3 -15 -1 -16 11 -6 7 6 11 15 8 20
-5 9 -13 12 -15 7z"/>
<path d="M664 5195 c-10 -8 -14 -14 -9 -15 15 0 40 18 34 24 -3 3 -14 -1 -25
-9z"/>
<path d="M2255 5200 c-3 -6 1 -7 9 -4 18 7 21 14 7 14 -6 0 -13 -4 -16 -10z"/>
<path d="M2281 5151 l24 -20 -45 5 c-25 3 -55 6 -67 8 -13 2 -23 -1 -23 -5 0
-5 5 -9 11 -9 8 0 7 -5 -2 -16 -11 -13 -7 -13 24 2 30 14 43 16 72 7 32 -10
38 -9 60 13 13 13 20 24 16 24 -5 0 -14 -7 -21 -15 -12 -14 -15 -13 -32 5 -10
11 -24 20 -29 20 -6 0 -1 -9 12 -19z"/>
<path d="M1794 5118 l-19 -23 23 19 c21 18 27 26 19 26 -2 0 -12 -10 -23 -22z"/>
<path d="M2057 5060 c3 -30 6 -61 6 -67 0 -9 4 -10 14 -2 20 17 16 73 -7 100
l-20 24 7 -55z"/>
<path d="M1938 5073 c5 -21 7 -23 10 -9 2 10 0 22 -6 28 -6 6 -7 0 -4 -19z"/>
<path d="M3770 5090 c-11 -8 -7 -9 15 -4 37 8 45 14 19 14 -10 0 -26 -5 -34
-10z"/>
<path d="M2334 5077 c3 -10 6 -25 6 -33 0 -7 6 -11 13 -8 7 2 22 -4 32 -16 17
-19 17 -20 0 -20 -10 0 -16 -3 -12 -6 3 -4 18 -3 33 0 l27 7 -29 30 c-15 16
-33 29 -40 29 -7 0 -18 8 -24 18 -11 16 -11 16 -6 -1z"/>
<path d="M3845 5080 c3 -5 8 -10 11 -10 2 0 4 5 4 10 0 6 -5 10 -11 10 -5 0
-7 -4 -4 -10z"/>
<path d="M3722 5023 c-1 -13 -6 -23 -12 -23 -5 0 2 -11 15 -25 14 -13 25 -30
25 -37 0 -7 12 -14 26 -15 26 -1 26 -1 -9 28 -24 20 -37 40 -40 62 -2 19 -4
23 -5 10z"/>
<path d="M6384 5024 c-19 -15 -19 -15 1 -6 11 5 27 12 35 15 13 5 13 6 -1 6
-8 1 -24 -6 -35 -15z"/>
<path d="M5120 5002 c0 -25 -4 -32 -19 -32 -10 0 -34 -11 -54 -24 -19 -13 -39
-21 -43 -18 -3 4 -1 -4 6 -18 13 -24 13 -24 21 -3 14 38 52 56 96 44 30 -8 35
-8 23 2 -8 7 -14 23 -12 36 2 13 -1 28 -7 34 -8 8 -11 2 -11 -21z"/>
<path d="M6460 5016 c0 -2 8 -10 18 -17 15 -13 16 -12 3 4 -13 16 -21 21 -21
13z"/>
<path d="M2830 4970 c-8 -5 -10 -10 -5 -10 6 0 17 5 25 10 8 5 11 10 5 10 -5
0 -17 -5 -25 -10z"/>
<path d="M2587 4907 c-4 -10 -11 -15 -17 -12 -5 3 -10 -3 -10 -15 0 -12 -9
-24 -22 -30 -13 -5 -18 -9 -11 -9 6 -1 18 -4 27 -7 11 -4 16 -1 16 10 0 15 2
15 24 1 26 -17 95 -17 86 0 -3 6 -21 10 -40 10 -32 0 -35 3 -40 35 -4 27 -7
31 -13 17z"/>
<path d="M5073 4885 c-15 -16 -16 -25 -5 -25 4 0 13 9 20 20 14 23 3 26 -15 5z"/>
<path d="M3782 4819 c-29 -36 -75 -39 -109 -7 -13 12 -23 17 -23 11 0 -17 47
-43 78 -43 29 0 82 39 82 60 0 14 -2 13 -28 -21z"/>
<path d="M5040 4831 c0 -10 6 -21 13 -24 10 -4 13 2 9 19 -5 28 -22 32 -22 5z"/>
<path d="M5030 4763 c8 -3 24 -10 35 -15 20 -9 20 -9 1 6 -11 9 -27 16 -35 15
-14 0 -14 -1 -1 -6z"/>
<path d="M4965 4740 c-13 -15 -22 -17 -36 -10 -10 6 -24 10 -31 10 -7 -1 1 -7
18 -14 35 -15 64 -51 64 -78 0 -14 -8 -18 -40 -18 -38 0 -40 -2 -40 -29 0 -16
-6 -32 -12 -34 -10 -4 -10 -6 0 -6 8 -1 12 -20 12 -62 0 -57 -1 -60 -17 -48
-17 13 -17 13 0 -7 9 -11 17 -28 17 -38 0 -15 12 -16 118 -14 l117 3 3 118 3
117 -45 0 c-41 0 -45 2 -49 28 l-4 27 -2 -27 c-1 -23 -6 -28 -26 -28 -16 0
-25 6 -25 16 0 9 -8 29 -17 46 -18 29 -18 30 6 49 13 10 19 19 14 19 -6 0 -18
-9 -28 -20z m63 -164 c27 -4 41 -2 37 4 -3 6 3 10 14 10 17 0 21 -6 21 -34 0
-19 -5 -38 -10 -41 -7 -4 -7 -12 0 -25 5 -10 10 -28 10 -39 0 -20 -6 -21 -81
-21 l-80 0 2 68 c2 68 11 94 32 87 7 -2 31 -6 55 -9z"/>
<path d="M3658 4734 c-16 -8 -28 -19 -28 -25 0 -5 13 0 29 12 18 13 38 20 50
16 12 -3 19 -1 15 4 -8 13 -35 10 -66 -7z"/>
<path d="M5615 4729 c-60 -22 -89 -24 -79 -6 4 6 -5 0 -21 -15 -15 -16 -36
-28 -45 -28 -11 0 -20 -10 -24 -26 -9 -36 -4 -38 37 -14 l37 22 25 -29 c33
-37 29 -67 -8 -71 -16 -2 -40 4 -55 13 l-27 16 24 -20 c13 -12 37 -21 55 -21
24 0 34 -6 43 -26 7 -15 10 -32 6 -38 -4 -7 -2 -7 6 0 10 9 10 17 2 32 -6 11
-11 34 -11 50 0 27 4 30 35 34 32 4 35 2 35 -23 0 -14 9 -38 20 -51 10 -14 16
-28 13 -32 -3 -3 -2 -6 4 -6 21 0 20 12 -4 36 -20 20 -24 32 -19 57 3 17 14
39 23 49 14 15 14 18 1 18 -8 0 -23 -9 -34 -21 -14 -16 -26 -20 -52 -15 -59 9
-84 48 -39 61 23 7 42 14 95 37 25 11 30 17 20 25 -9 7 -28 5 -63 -8z"/>
<path d="M2595 4720 c-8 -13 5 -13 25 0 13 8 13 10 -2 10 -9 0 -20 -4 -23 -10z"/>
<path d="M3770 4630 c-25 -60 -85 -68 -133 -17 l-31 32 20 -35 c19 -33 39 -87
36 -100 0 -3 24 -7 53 -8 44 -2 59 2 81 21 18 16 24 26 16 31 -7 4 -12 2 -12
-5 0 -38 -83 -52 -118 -19 -30 28 -29 48 3 42 38 -7 82 16 95 49 7 16 10 32 8
35 -3 2 -11 -9 -18 -26z"/>
<path d="M1620 4623 c-40 -13 -60 -28 -71 -54 -6 -16 -15 -29 -20 -29 -7 0 -6
-12 6 -71 4 -17 -1 -34 -14 -50 l-20 -24 -1 63 c0 43 4 62 13 62 6 1 2 9 -9
19 -12 9 -24 26 -27 37 -4 16 -5 16 -6 -3 0 -13 -5 -23 -11 -23 -6 0 -10 -32
-10 -75 0 -69 -2 -75 -20 -75 -17 0 -19 4 -14 26 7 28 -13 77 -30 71 -6 -2
-13 -19 -16 -38 -6 -37 -33 -51 -53 -26 -7 8 -19 17 -28 20 -13 4 -15 1 -12
-14 9 -33 -13 -21 -33 19 -10 20 -20 39 -21 41 -1 2 -9 1 -18 -3 -14 -5 -12
-10 12 -31 22 -19 25 -27 14 -34 -9 -6 -10 -11 -2 -15 18 -11 13 -55 -8 -68
-14 -9 -18 -19 -14 -48 5 -32 1 -40 -23 -57 -16 -11 -39 -23 -50 -27 -16 -5
-21 -12 -16 -28 3 -14 1 -19 -6 -14 -7 4 -12 12 -12 18 0 5 -10 23 -23 38 -20
23 -26 25 -40 15 -28 -20 -20 -37 14 -33 28 3 32 -1 44 -35 11 -32 11 -39 -1
-44 -8 -3 -14 -9 -14 -14 0 -5 10 -4 23 2 12 7 29 15 37 19 8 4 29 1 45 -6 17
-7 45 -19 63 -26 40 -16 43 -48 6 -77 -35 -28 -66 -26 -92 4 -22 25 -42 33
-42 16 0 -17 52 -51 79 -51 15 0 37 7 50 16 22 16 24 16 33 0 7 -12 23 -16 63
-16 l55 0 0 -37 c0 -24 8 -45 22 -60 12 -13 17 -23 12 -23 -5 0 -10 -8 -11
-17 -1 -10 -5 -31 -9 -48 l-7 -29 32 27 c35 29 47 32 71 17 12 -8 11 -13 -8
-33 -16 -17 -22 -35 -22 -71 0 -39 -3 -47 -16 -42 -8 3 -12 2 -9 -4 3 -6 14
-10 24 -10 9 0 27 -14 40 -31 36 -49 84 -58 94 -18 3 10 11 19 17 19 7 0 10
-8 7 -19 -6 -25 19 -17 34 10 7 15 6 23 -6 35 -20 20 -58 94 -48 94 4 0 -2 6
-13 14 -10 8 -16 18 -12 22 11 10 40 -17 34 -32 -3 -7 2 -15 10 -18 10 -4 20
6 30 31 15 34 15 38 -4 52 -11 9 -23 26 -27 39 -3 12 -13 22 -20 22 -8 0 -24
19 -36 43 -24 47 -39 61 -53 47 -6 -6 -5 -19 4 -35 22 -41 2 -42 -36 -3 -33
36 -33 37 -11 41 16 3 13 5 -10 6 -28 1 -33 -3 -33 -21 0 -12 10 -32 22 -45
16 -17 18 -23 6 -23 -21 0 -58 43 -58 68 0 26 34 37 83 28 31 -5 78 16 65 30
-4 3 5 22 18 41 13 20 24 50 24 67 0 67 -55 104 -160 108 l-65 3 -1 45 c-1 25
-3 51 -5 59 -2 8 8 21 23 30 23 13 31 14 48 3 33 -21 63 -14 85 18 15 23 22
27 30 17 6 -7 28 -21 49 -31 50 -23 100 -13 129 26 27 37 16 45 -22 17 -26
-19 -36 -21 -68 -13 -32 8 -38 13 -41 39 -2 27 3 32 40 50 24 11 47 18 52 17
5 -2 6 4 2 13 -3 9 -6 24 -6 33 -1 9 -7 3 -15 -15 -21 -50 -85 -74 -85 -32 0
28 18 59 35 59 7 0 26 5 40 10 23 9 25 13 15 25 -12 15 -32 18 -60 8z m-290
-284 c0 -24 4 -30 15 -25 11 4 15 -2 14 -22 0 -22 -2 -24 -8 -8 -6 17 -9 15
-20 -12 -11 -26 -19 -32 -45 -32 -22 0 -34 6 -41 23 -10 20 -8 22 24 25 45 3
56 14 42 41 -17 31 -45 28 -37 -4 7 -26 -5 -32 -38 -19 -20 8 -21 34 -2 34 7
0 19 7 26 15 7 8 25 15 41 15 26 0 29 -4 29 -31z m-80 -133 c0 -23 -14 -31
-45 -28 -35 4 -46 16 -22 25 15 7 67 9 67 3z m90 -10 c0 -3 -4 -8 -10 -11 -5
-3 -10 -1 -10 4 0 6 5 11 10 11 6 0 10 -2 10 -4z m210 -65 c0 -11 -3 -11 -15
-1 -8 7 -15 27 -14 44 l1 31 13 -30 c8 -16 14 -36 15 -44z m-270 39 c0 -19
-11 -26 -23 -14 -8 8 3 34 14 34 5 0 9 -9 9 -20z m160 10 c-12 -8 -10 -10 8
-10 13 0 20 4 17 10 -3 6 -1 10 4 10 7 0 11 -29 11 -75 l0 -75 -30 0 c-40 0
-70 31 -70 74 0 26 5 35 23 41 13 4 17 8 9 12 -18 7 -4 23 21 23 18 0 19 -2 7
-10z m-199 -20 c33 -18 23 -33 -18 -25 -46 8 -55 13 -48 26 8 12 42 12 66 -1z
m121 -37 c3 -27 8 -56 12 -65 7 -15 3 -18 -23 -18 l-31 0 0 65 c0 57 2 65 19
65 15 0 20 -9 23 -47z m184 -58 c-9 -36 -26 -22 -26 23 0 34 1 35 16 20 11
-11 15 -25 10 -43z m25 -178 c-1 -12 -15 -9 -19 4 -3 6 1 10 8 8 6 -3 11 -8
11 -12z m-101 -11 c0 -2 -7 -7 -16 -10 -8 -3 -12 -2 -9 4 6 10 25 14 25 6z
m40 -20 c0 -2 -13 -6 -29 -8 -17 -2 -28 -1 -25 4 5 8 54 12 54 4z m98 -21 c6
-14 8 -25 4 -25 -12 0 -32 23 -32 37 0 22 16 15 28 -12z m-54 -52 c4 -10 -3
-26 -19 -43 -14 -14 -25 -32 -25 -39 0 -7 -4 -9 -10 -6 -15 9 -12 58 6 83 18
26 39 29 48 5z m35 -66 c11 -20 9 -29 -9 -60 -18 -30 -25 -35 -36 -26 -8 6
-14 28 -14 48 0 59 36 81 59 38z"/>
<path d="M960 4601 c0 -5 -7 -16 -15 -25 -8 -8 -17 -31 -20 -51 -2 -19 -11
-43 -20 -52 -18 -18 -35 -56 -35 -79 0 -27 38 -15 49 16 9 27 14 30 55 30 36
0 48 5 65 26 18 23 19 28 6 38 -8 6 -19 25 -26 41 -6 17 -13 25 -16 18 -2 -7
0 -21 6 -32 15 -27 14 -41 -4 -41 -8 0 -15 -4 -15 -10 0 -12 -47 -13 -54 -1
-3 5 1 22 9 37 8 16 15 37 15 47 0 10 8 17 20 17 13 0 18 5 14 15 -7 16 -34
21 -34 6z"/>
<path d="M418 4583 c6 -2 18 -2 25 0 6 3 1 5 -13 5 -14 0 -19 -2 -12 -5z"/>
<path d="M2713 4573 c9 -2 25 -2 35 0 9 3 1 5 -18 5 -19 0 -27 -2 -17 -5z"/>
<path d="M5355 4572 c-5 -4 -17 -16 -25 -27 -11 -15 -7 -14 15 5 17 14 32 26
34 28 2 1 0 2 -5 2 -5 0 -13 -4 -19 -8z"/>
<path d="M5458 4550 c6 -9 12 -29 12 -43 0 -15 5 -27 10 -27 18 0 10 38 -12
62 -13 13 -17 17 -10 8z"/>
<path d="M640 4465 c0 -50 4 -85 10 -85 6 0 10 21 10 46 0 33 5 51 18 60 16
13 16 13 -2 14 -14 0 -17 6 -14 25 4 17 1 25 -8 25 -11 0 -14 -20 -14 -85z"/>
<path d="M5168 4543 c7 -3 16 -2 19 1 4 3 -2 6 -13 5 -11 0 -14 -3 -6 -6z"/>
<path d="M426 4527 c4 -10 16 -22 28 -29 18 -9 19 -8 6 3 -8 8 -20 21 -27 29
-11 13 -12 13 -7 -3z"/>
<path d="M4110 4516 c0 -2 7 -6 15 -10 8 -3 15 -1 15 4 0 6 -7 10 -15 10 -8 0
-15 -2 -15 -4z"/>
<path d="M510 4494 c-24 -9 -29 -13 -14 -13 11 -1 29 6 40 14 22 17 20 17 -26
-1z"/>
<path d="M730 4485 c7 -9 15 -13 17 -11 7 7 -7 26 -19 26 -6 0 -6 -6 2 -15z"/>
<path d="M1139 4496 c-2 -2 -2 -29 -1 -60 5 -68 22 -65 22 4 0 29 5 50 13 53
6 3 3 6 -9 6 -11 1 -23 -1 -25 -3z"/>
<path d="M3320 4476 c0 -8 4 -17 9 -20 5 -4 7 3 4 14 -6 23 -13 26 -13 6z"/>
<path d="M4052 4475 c-30 -16 -41 -28 -18 -19 16 6 17 4 7 -14 -7 -13 -21 -22
-34 -22 -27 0 -87 -35 -87 -51 0 -8 -4 -8 -15 1 -12 10 -21 6 -52 -21 -21 -18
-41 -41 -45 -51 -4 -10 -12 -18 -18 -18 -6 0 -2 -12 9 -27 21 -31 33 -93 22
-112 -5 -7 -26 -18 -47 -26 -21 -7 -39 -18 -39 -24 0 -6 26 -41 59 -77 l59
-65 -7 -57 c-4 -40 -12 -62 -27 -74 -12 -10 -25 -16 -29 -13 -4 3 -10 -5 -13
-17 -6 -21 -7 -20 -41 8 -19 16 -38 39 -42 52 -7 25 -34 30 -34 7 0 -9 -10
-15 -22 -16 -20 -1 -19 -2 5 -9 37 -11 57 -29 74 -65 10 -21 13 -23 9 -7 -5
26 0 28 21 7 12 -13 13 -18 2 -31 -7 -8 -18 -13 -25 -10 -7 3 -14 0 -17 -7 -4
-14 -127 63 -127 81 0 6 -6 12 -13 12 -8 0 -13 10 -13 23 1 18 -3 21 -27 19
-15 -2 -38 3 -51 11 -24 16 -50 9 -38 -10 4 -6 26 -16 49 -22 24 -7 51 -23 63
-39 l22 -27 -44 -5 c-25 -3 -56 -13 -71 -23 -32 -21 -87 -79 -87 -92 0 -11
-46 -35 -67 -35 -19 0 -16 17 5 24 34 13 64 34 54 40 -5 3 -8 18 -6 33 3 25 3
25 -6 -4 -17 -54 -73 -78 -121 -53 -16 9 -17 14 -6 30 6 11 22 20 34 20 12 0
33 14 48 32 21 25 28 29 36 17 7 -11 9 -9 9 8 0 12 10 29 22 37 14 10 17 16 9
16 -8 0 -23 -7 -33 -17 -14 -13 -18 -13 -19 -2 0 8 -7 -3 -15 -23 -22 -52 -44
-58 -38 -10 l4 37 -11 -34 -11 -35 -18 41 c-10 22 -26 43 -36 47 -17 5 -17 5
-3 -6 31 -25 42 -57 28 -89 -14 -35 -36 -49 -78 -49 -38 0 -46 14 -27 42 9 12
16 34 15 48 -1 21 -2 20 -9 -8 -4 -18 -15 -41 -25 -52 -9 -10 -14 -24 -10 -29
4 -7 -3 -11 -17 -11 -18 0 -20 2 -8 10 12 8 10 10 -8 10 -13 0 -20 -4 -17 -10
3 -5 -3 -10 -15 -10 -20 0 -21 4 -18 88 l3 87 32 3 c24 2 39 -3 58 -22 17 -17
25 -20 25 -11 0 9 10 15 23 16 20 0 21 1 2 8 -19 8 -19 8 0 19 11 6 15 12 10
12 -6 0 -21 -7 -34 -16 -15 -11 -25 -13 -30 -6 -3 6 -30 9 -59 8 -28 -2 -52 0
-52 4 0 19 85 74 101 64 17 -10 6 28 -13 48 -15 14 -22 16 -42 7 -14 -7 -36
-9 -50 -5 -22 5 -25 10 -20 33 6 23 4 25 -15 20 -16 -4 -21 -1 -21 15 0 10 5
28 11 40 13 23 4 37 -13 20 -7 -7 -23 -12 -36 -12 -13 0 -37 -10 -54 -21 -24
-18 -32 -19 -38 -8 -5 7 -24 13 -44 13 -31 0 -33 2 -24 19 6 13 6 23 0 29 -16
16 -48 -7 -63 -44 -7 -18 -18 -36 -23 -40 -7 -5 -5 -19 8 -43 l19 -35 13 36
c16 45 22 52 59 60 44 8 85 -26 85 -72 0 -45 -29 -74 -74 -74 -31 0 -34 -3
-32 -25 2 -13 9 -31 16 -40 10 -12 8 -16 -15 -25 -14 -5 -30 -10 -35 -10 -5 0
-14 -8 -19 -17 -9 -16 -10 -15 -11 7 0 14 8 37 17 50 l17 25 -22 -19 c-12 -11
-22 -29 -22 -41 0 -13 -7 -28 -16 -36 -19 -15 -44 -63 -43 -81 0 -7 6 -1 12
14 16 35 48 69 58 62 5 -3 11 1 14 8 3 7 20 14 38 15 57 3 60 -2 33 -55 l-25
-49 -88 -18 c-48 -10 -94 -21 -102 -25 -10 -5 5 -26 53 -77 73 -78 75 -84 55
-200 -11 -62 -32 -85 -42 -45 -4 16 -5 16 -6 0 0 -10 -7 -18 -15 -18 -8 0 -31
-9 -50 -21 -29 -17 -38 -18 -58 -8 -21 11 -22 11 -9 -4 7 -10 17 -32 21 -50
l8 -32 1 32 c1 28 22 53 45 53 4 0 5 -49 3 -108 l-4 -108 61 4 c51 3 64 1 79
-16 21 -23 15 -29 -58 -66 -32 -17 -42 -26 -33 -32 21 -13 71 -5 93 16 12 11
26 20 31 20 6 0 21 11 34 25 l23 25 -29 0 c-17 0 -39 7 -50 15 -17 13 -14 14
39 15 l57 0 0 63 c0 42 6 77 19 102 15 30 20 35 22 20 4 -18 5 -18 19 -3 13
14 17 12 37 -18 13 -18 23 -37 23 -41 0 -4 11 -21 25 -37 14 -16 25 -34 25
-41 0 -14 68 -95 81 -95 16 0 9 24 -20 69 l-29 44 28 24 c24 20 32 22 53 12
14 -6 30 -21 35 -33 6 -11 11 -15 11 -8 1 18 -35 51 -66 58 -21 6 -30 2 -41
-14 -8 -12 -20 -22 -26 -22 -11 0 -46 60 -46 79 0 10 59 35 74 32 5 -1 6 5 2
14 -4 11 -2 15 6 12 7 -2 43 11 80 29 58 29 68 31 79 18 10 -13 13 -12 24 8 6
14 18 22 29 20 10 -2 15 1 12 7 -4 6 5 13 21 17 15 3 41 10 57 15 42 13 49 11
43 -11 -4 -16 1 -14 23 10 28 30 31 31 89 24 89 -10 123 0 175 52 25 25 46 50
46 56 0 7 12 25 27 40 25 26 22 34 -9 29 -5 0 -8 5 -8 12 0 16 62 16 68 0 6
-19 82 -16 103 3 17 15 20 15 44 0 14 -9 25 -21 25 -26 0 -14 -18 -21 -25 -10
-16 25 -22 7 -7 -20 11 -19 25 -30 40 -30 27 0 27 2 3 70 -11 30 -17 58 -15
62 3 5 0 8 -6 8 -7 0 -5 9 4 22 19 27 21 49 3 23 -15 -20 -31 -7 -21 18 7 18
34 31 34 16 0 -5 14 6 30 24 40 47 66 49 145 15 80 -34 88 -34 80 -6 -6 18 -4
20 11 13 48 -19 55 -19 50 6 -3 13 -8 44 -11 69 -5 44 -4 46 29 64 19 10 42
16 50 13 8 -3 17 1 20 9 3 8 16 14 28 15 14 1 5 6 -22 13 -38 11 -48 11 -63
-2 -20 -18 -32 -10 -23 14 3 9 12 14 20 11 7 -3 17 -2 22 2 5 5 31 14 57 21
34 9 52 21 62 39 l14 26 1 -36 c0 -24 -7 -42 -20 -54 -27 -25 -25 -35 8 -35
26 0 28 3 24 29 -3 21 3 36 20 53 l23 23 6 -43 c4 -29 15 -51 35 -71 l30 -29
-4 31 c-5 41 29 87 64 87 14 0 23 4 20 9 -15 24 -96 -39 -96 -75 0 -20 -18
-17 -30 5 -25 47 -2 101 53 125 26 12 28 15 11 15 -20 1 -34 18 -34 42 0 5 14
9 31 9 33 0 89 46 89 74 0 24 -18 19 -71 -19 l-48 -34 -3 36 c-3 35 -6 38 -62
61 -53 21 -63 22 -105 11 -39 -10 -61 -9 -125 4 -43 9 -80 18 -83 20 -2 2 -23
39 -46 82 -23 43 -46 80 -52 81 -5 1 -20 -4 -33 -11z m73 -107 c38 -69 42 -73
85 -81 101 -18 100 -17 20 -43 -41 -13 -76 -24 -77 -24 -2 0 -14 22 -28 49
-31 62 -44 70 -65 43 -12 -14 -20 -18 -28 -10 -16 16 -28 4 -69 -72 l-37 -70
-48 47 c-26 26 -48 50 -48 54 0 3 37 12 82 20 l83 14 40 73 c22 39 42 72 45
72 3 0 23 -32 45 -72z m-111 34 c3 -5 -5 -25 -17 -44 l-22 -37 -24 20 c-20 16
-21 21 -10 35 21 25 64 41 73 26z m-58 -79 c-7 -7 -130 -32 -135 -28 -8 8 24
38 54 51 24 10 35 10 58 -3 16 -8 26 -17 23 -20z m147 -74 c20 -36 17 -44 -20
-52 -16 -3 -37 -9 -47 -13 -16 -6 -15 0 10 44 16 29 31 52 34 52 3 0 13 -14
23 -31z m-101 -39 c-15 -27 -31 -50 -35 -50 -5 0 4 22 20 50 15 27 31 50 35
50 5 0 -4 -22 -20 -50z m459 0 c10 -6 19 -15 19 -21 0 -6 -4 -7 -10 -4 -5 3
-10 2 -10 -3 0 -4 -24 -14 -52 -21 -29 -8 -57 -17 -63 -21 -13 -10 -75 0 -75
11 0 5 10 13 23 18 12 5 45 18 72 29 59 24 70 25 96 12z m-571 -62 c0 -13 -22
-9 -42 9 -10 9 -18 25 -18 36 0 19 3 18 30 -8 17 -16 30 -32 30 -37z m370 -29
c85 -14 82 -33 -4 -24 -37 4 -79 2 -104 -5 -35 -9 -44 -16 -48 -39 -4 -18 -33
-55 -76 -97 -64 -63 -70 -66 -63 -39 3 17 15 38 26 48 29 27 24 53 -15 74 -18
10 -17 12 15 29 42 22 157 62 182 63 10 1 49 -4 87 -10z m-400 -13 c0 -2 -7
-6 -15 -10 -8 -3 -15 -1 -15 4 0 6 7 10 15 10 8 0 15 -2 15 -4z m-55 -26 c11
-17 -5 -32 -21 -19 -8 6 -14 15 -14 20 0 12 27 11 35 -1z m-894 -55 c-1 -22
-8 -43 -15 -47 -16 -11 13 -30 37 -24 21 5 18 -13 -4 -27 -18 -11 -67 33 -88
79 -11 26 -11 30 10 47 12 10 32 17 43 15 18 -3 20 -9 17 -43z m1319 -30 c-12
-14 -8 -110 7 -172 5 -21 1 -21 -76 15 l-80 37 48 50 c27 28 51 58 54 68 4 10
17 17 33 17 22 0 25 -2 14 -15z m-1182 -63 c-13 -9 -29 -22 -36 -29 -17 -16
-29 -17 -34 -1 -8 23 61 63 85 50 5 -2 -2 -11 -15 -20z m-188 14 c0 -3 -4 -8
-10 -11 -5 -3 -10 -1 -10 4 0 6 5 11 10 11 6 0 10 -2 10 -4z m110 -71 c0 -20
-23 -35 -53 -35 -27 0 -29 2 -22 27 4 16 7 28 8 29 34 21 43 22 55 7 6 -9 12
-22 12 -28z m-122 -5 c5 0 15 7 22 15 18 21 22 13 11 -19 -10 -25 -51 -38 -51
-16 0 12 -27 13 -32 1 -7 -19 -41 -15 -55 7 -15 21 -14 22 14 22 16 0 38 6 49
14 17 13 20 12 26 -5 4 -10 11 -19 16 -19z m1287 -52 c25 -12 45 -26 45 -30 0
-7 -95 35 -109 48 -13 12 25 1 64 -18z m-1270 -90 c33 -59 46 -74 70 -79 19
-4 2 -7 -47 -8 l-78 -1 0 80 c0 44 3 80 8 80 4 0 25 -33 47 -72z m13 47 c-3
-3 -9 2 -12 12 -6 14 -5 15 5 6 7 -7 10 -15 7 -18z m85 -55 c2 -30 2 -47 0
-37 -4 14 -8 16 -19 6 -12 -10 -13 -7 -8 19 3 16 1 39 -5 51 -15 27 -4 49 14
29 7 -7 15 -38 18 -68z m-44 0 l0 -25 -15 28 c-8 15 -12 32 -8 38 9 16 24 -10
23 -41z m900 -10 c9 0 23 6 31 13 7 6 3 -2 -11 -20 -28 -37 -45 -46 -70 -38
-21 7 -26 44 -8 62 9 9 15 8 26 -3 8 -8 22 -14 32 -14z m-929 -110 c110 0 120
2 120 18 0 15 6 18 30 14 17 -2 30 -7 30 -11 0 -4 -25 -31 -56 -61 l-56 -55 7
-70 c3 -38 9 -80 12 -93 5 -22 3 -21 -68 13 -40 19 -80 35 -89 35 -9 0 -49
-16 -89 -35 -71 -34 -73 -35 -68 -13 3 13 9 55 12 93 l7 70 -56 55 c-31 30
-56 57 -56 61 0 4 37 12 81 19 73 12 83 16 98 41 l16 29 3 -55 3 -55 119 0z
m697 64 c27 -17 46 -51 39 -69 -3 -8 0 -16 7 -18 8 -3 3 -14 -12 -31 -23 -24
-26 -25 -43 -9 -25 22 -23 31 10 36 25 4 25 4 -5 6 -36 1 -42 -13 -23 -50 9
-16 7 -19 -12 -19 -29 0 -78 44 -78 70 0 10 9 25 20 33 11 8 17 17 13 21 -4 3
-17 -6 -29 -21 l-21 -27 -12 23 c-18 33 -7 51 31 52 27 0 29 2 13 8 -19 8 -18
9 5 13 32 6 69 -1 97 -18z m313 7 c0 -29 -34 -65 -53 -58 -22 8 -21 19 4 51
24 30 49 34 49 7z m-180 -21 c22 -19 23 -39 1 -25 -11 6 -35 45 -28 45 2 0 14
-9 27 -20z m-555 -10 c-3 -5 -15 -10 -26 -10 -11 0 -17 5 -14 10 3 6 15 10 26
10 11 0 17 -4 14 -10z m97 -14 c4 3 8 0 8 -5 0 -6 -8 -11 -17 -11 -10 0 -31
-7 -46 -15 -26 -13 -31 -13 -55 3 -23 15 -25 15 -20 1 5 -12 0 -16 -21 -15
-24 1 -26 3 -17 19 6 10 23 17 41 17 17 0 40 6 50 14 15 11 23 11 43 0 14 -7
29 -11 34 -8z m98 -48 l0 -42 -22 21 c-21 22 -21 23 -3 43 10 11 20 20 22 20
1 0 3 -19 3 -42z m-81 13 c12 -8 9 -11 -12 -16 -15 -4 -33 -15 -40 -25 -16
-22 -43 -10 -34 14 11 27 61 43 86 27z m-117 -45 c13 -13 32 -26 43 -28 27 -5
50 -48 41 -81 -3 -15 -11 -27 -17 -27 -6 0 -26 -7 -45 -16 -36 -17 -70 -12
-58 8 5 8 -6 9 -41 5 -26 -4 -53 -7 -59 -7 -8 0 -10 -13 -8 -36 3 -27 1 -35
-7 -29 -7 4 -11 22 -9 40 1 19 -1 37 -5 41 -4 4 -7 23 -7 43 0 52 59 111 112
111 26 0 44 -7 60 -24z m183 -11 c14 -13 25 -34 25 -45 0 -20 -1 -20 -22 -6
-12 9 -34 16 -48 16 -21 0 -18 -4 18 -20 64 -29 53 -60 -21 -60 -30 0 -32 3
-33 34 0 24 -8 41 -24 54 l-23 19 24 16 c34 24 76 21 104 -8z m50 -85 c-3 -5
-10 -10 -16 -10 -5 0 -9 5 -9 10 0 6 7 10 16 10 8 0 12 -4 9 -10z m-325 -70
c-19 -12 -30 -12 -30 -1 0 10 31 20 40 14 2 -2 -2 -8 -10 -13z m8 -30 c-18
-10 -35 -16 -37 -15 -7 7 12 27 33 35 36 13 39 -1 4 -20z m-141 -51 c-6 -3
-24 -9 -39 -13 -23 -5 -29 -1 -46 33 l-20 39 59 -26 c33 -15 53 -29 46 -33z
m-132 10 c9 -17 14 -33 11 -37 -3 -3 -6 0 -6 7 0 6 -11 23 -25 36 -16 17 -19
25 -10 25 8 0 22 -14 30 -31z m-40 1 c3 -5 1 -10 -4 -10 -6 0 -11 5 -11 10 0
6 2 10 4 10 3 0 8 -4 11 -10z m35 -57 c0 -7 -4 -13 -10 -13 -5 0 -10 12 -10
28 0 21 2 24 10 12 5 -8 10 -21 10 -27z m-175 -3 c-3 -5 -10 -10 -16 -10 -5 0
-9 5 -9 10 0 6 7 10 16 10 8 0 12 -4 9 -10z m115 -6 c0 -14 -3 -15 -17 -3 -10
7 -20 15 -22 16 -2 2 5 3 17 3 14 0 22 -6 22 -16z m-35 -16 l28 -22 -34 -12
c-47 -17 -46 -17 -65 12 -15 22 -15 27 -3 35 23 14 44 10 74 -13z m-91 -69
c15 -22 25 -46 23 -52 -6 -20 -57 40 -57 68 0 14 2 25 4 25 2 0 15 -18 30 -41z
m126 -14 l0 -45 -45 0 c-39 0 -45 3 -45 20 0 12 11 32 25 45 13 14 33 25 45
25 17 0 20 -6 20 -45z"/>
<path d="M5638 4483 c6 -2 18 -2 25 0 6 3 1 5 -13 5 -14 0 -19 -2 -12 -5z"/>
<path d="M4818 4473 c7 -3 16 -2 19 1 4 3 -2 6 -13 5 -11 0 -14 -3 -6 -6z"/>
<path d="M4575 4445 c6 -2 22 -6 37 -9 33 -8 62 -57 54 -92 -10 -37 -49 -58
-99 -51 -38 5 -40 4 -23 -9 24 -17 30 -17 78 0 27 10 40 10 49 2 8 -8 10 -6 5
9 -4 14 0 24 14 33 18 11 19 10 14 -17 -4 -18 0 -38 11 -55 15 -22 19 -24 32
-11 8 8 20 15 26 15 29 0 96 36 101 54 7 29 1 31 -45 16 -40 -13 -42 -13 -61
10 -13 16 -18 35 -16 55 2 21 -1 32 -9 32 -7 0 -13 -7 -13 -14 0 -20 -29 -73
-39 -73 -5 0 -12 16 -15 35 -8 40 -48 75 -85 74 -14 0 -21 -2 -16 -4z m163
-72 c-2 -10 8 -30 22 -44 l27 -26 -30 -11 c-38 -15 -49 -8 -37 24 12 31 12 37
1 30 -5 -4 -4 5 2 19 14 29 20 32 15 8z"/>
<path d="M2195 4430 c-16 -5 -38 -7 -50 -4 -11 3 -29 -1 -39 -9 -19 -14 -19
-15 3 -46 26 -36 42 -41 34 -10 -4 12 0 25 8 30 17 11 79 12 79 1 0 -18 -32
-51 -53 -55 l-22 -4 22 -2 c51 -3 118 101 68 106 -11 1 -33 -2 -50 -7z"/>
<path d="M3140 4404 c0 -8 5 -12 10 -9 6 3 10 10 10 16 0 5 -4 9 -10 9 -5 0
-10 -7 -10 -16z"/>
<path d="M5314 4389 c33 -26 37 -88 6 -119 l-20 -20 24 0 c14 0 28 -4 31 -10
3 -5 12 -10 18 -10 8 0 11 20 9 66 -3 54 -1 68 15 80 14 11 15 13 2 8 -10 -3
-20 0 -24 6 -4 6 -15 8 -25 5 -10 -3 -21 -1 -25 5 -3 5 -13 10 -22 10 -11 0
-8 -6 11 -21z"/>
<path d="M2698 4393 c6 -2 18 -2 25 0 6 3 1 5 -13 5 -14 0 -19 -2 -12 -5z"/>
<path d="M5211 4391 c-8 -5 -19 -7 -26 -5 -33 13 -54 -96 -25 -131 15 -18 37
-20 42 -4 3 9 10 9 26 0 13 -7 33 -10 45 -8 18 4 17 5 -5 6 -16 0 -37 10 -48
21 -25 25 -27 86 -3 112 18 20 16 23 -6 9z"/>
<path d="M5420 4301 c0 -96 13 -108 61 -54 l31 36 -22 17 c-18 14 -21 23 -15
48 6 31 5 32 -24 32 l-31 0 0 -79z"/>
<path d="M3020 4341 c0 -42 96 -92 116 -59 4 7 3 8 -4 4 -8 -5 -12 0 -12 13 0
11 5 23 10 26 13 8 13 35 0 35 -5 0 -18 -10 -29 -22 -19 -19 -22 -20 -38 -6
-33 28 -43 30 -43 9z m80 -51 c0 -5 -4 -10 -10 -10 -5 0 -10 5 -10 10 0 6 5
10 10 10 6 0 10 -4 10 -10z"/>
<path d="M3348 4349 c-2 -6 -19 -14 -38 -19 -25 -6 -28 -8 -12 -9 13 -1 32 4
43 9 14 8 25 7 41 -5 13 -8 30 -15 40 -15 25 0 23 -16 -4 -34 -33 -23 -75 -20
-103 9 -14 13 -25 20 -25 15 0 -17 53 -50 80 -50 31 0 80 34 80 56 0 8 -10 14
-24 14 -13 0 -35 9 -49 20 -15 12 -27 16 -29 9z"/>
<path d="M5131 4314 c0 -11 3 -14 6 -6 3 7 2 16 -1 19 -3 4 -6 -2 -5 -13z"/>
<path d="M3686 4278 c10 -14 21 -24 23 -22 3 3 -6 15 -18 27 l-24 22 19 -27z"/>
<path d="M3280 4269 c0 -9 9 -27 21 -40 11 -13 18 -18 14 -11 -29 57 -35 65
-35 51z"/>
<path d="M3546 4255 c-9 -26 -7 -32 5 -12 6 10 9 21 6 23 -2 3 -7 -2 -11 -11z"/>
<path d="M3250 4257 c0 -5 9 -20 20 -34 11 -14 20 -21 20 -15 0 12 -39 60 -40
49z"/>
<path d="M3153 4239 c-9 -9 -6 -18 11 -36 13 -14 33 -43 45 -64 l22 -39 -25 0
c-13 0 -32 7 -40 16 -13 13 -16 13 -16 1 0 -8 -9 -27 -21 -43 l-21 -29 24 26
c19 20 31 25 56 21 40 -5 102 33 101 63 0 17 -1 17 -10 -4 l-9 -24 -25 23
c-14 13 -25 29 -25 35 0 6 -13 23 -28 38 -21 20 -31 24 -39 16z"/>
<path d="M653 4233 c-18 -7 -17 -83 1 -83 17 0 30 -29 13 -32 -7 -1 13 -4 43
-7 30 -4 60 -3 65 0 6 4 19 9 30 11 11 2 21 9 21 16 1 6 2 21 3 33 0 11 6 17
11 14 6 -3 10 -1 10 4 0 6 -5 11 -10 11 -6 0 -20 9 -32 20 -17 16 -35 20 -82
19 -34 0 -67 -3 -73 -6z m101 -12 c3 -5 14 -7 25 -4 13 3 20 -2 25 -20 10 -42
-2 -55 -57 -62 -41 -6 -53 -4 -62 9 -7 9 -17 16 -24 16 -19 0 -12 31 11 51 22
20 73 26 82 10z"/>
<path d="M3430 4205 c0 -8 5 -15 11 -15 5 0 7 5 3 11 -4 8 4 9 27 4 25 -4 30
-3 19 4 -23 16 -60 13 -60 -4z"/>
<path d="M4778 4213 c6 -2 18 -2 25 0 6 3 1 5 -13 5 -14 0 -19 -2 -12 -5z"/>
<path d="M5188 4183 c-18 -22 2 -33 57 -33 54 0 76 13 56 33 -14 14 -100 15
-113 0z"/>
<path d="M5340 4175 c0 -8 4 -15 10 -15 5 0 7 7 4 15 -4 8 -8 15 -10 15 -2 0
-4 -7 -4 -15z"/>
<path d="M3451 4148 c-1 -15 4 -30 9 -33 12 -7 12 12 0 40 -8 18 -9 17 -9 -7z"/>
<path d="M1040 4141 c11 -22 30 -29 30 -11 0 5 -9 14 -21 20 -19 11 -20 10 -9
-9z"/>
<path d="M911 4124 c0 -11 3 -14 6 -6 3 7 2 16 -1 19 -3 4 -6 -2 -5 -13z"/>
<path d="M2972 4091 c-7 -14 -12 -30 -12 -37 0 -18 30 -26 36 -9 5 12 9 12 30
-1 15 -10 30 -13 41 -8 14 6 10 9 -17 13 -26 5 -39 14 -50 37 l-16 31 -12 -26z"/>
<path d="M3443 4094 c1 -11 -4 -18 -11 -16 -8 1 -11 -2 -7 -9 5 -8 12 -6 23 5
12 12 13 19 5 27 -8 8 -11 6 -10 -7z"/>
<path d="M4644 4089 c14 -11 26 -26 26 -34 0 -7 7 -16 16 -19 15 -6 15 -4 3
11 -29 39 -53 63 -62 63 -5 0 2 -9 17 -21z"/>
<path d="M3306 4076 c6 -16 70 -33 81 -22 4 3 -5 6 -18 6 -14 0 -34 7 -47 15
-19 14 -21 14 -16 1z"/>
<path d="M5570 4040 c0 -5 5 -10 10 -10 6 0 10 5 10 10 0 6 -4 10 -10 10 -5 0
-10 -4 -10 -10z"/>
<path d="M900 4032 c0 -5 7 -15 15 -22 8 -7 15 -8 15 -2 0 5 -7 15 -15 22 -8
7 -15 8 -15 2z"/>
<path d="M5137 4033 c-4 -3 -7 -40 -7 -81 l0 -74 -32 6 c-17 3 -40 14 -50 23
-17 15 -18 15 -13 1 9 -24 51 -49 70 -42 11 5 18 0 22 -15 8 -32 33 -26 33 8
0 17 5 33 10 36 15 9 12 107 -4 128 -14 19 -19 20 -29 10z"/>
<path d="M805 4020 c-3 -5 -2 -10 4 -10 5 0 13 5 16 10 3 6 2 10 -4 10 -5 0
-13 -4 -16 -10z"/>
<path d="M5060 3971 c0 -28 5 -53 10 -56 6 -4 10 15 10 49 0 31 -4 56 -10 56
-5 0 -10 -22 -10 -49z"/>
<path d="M4518 3913 c7 -3 16 -2 19 1 4 3 -2 6 -13 5 -11 0 -14 -3 -6 -6z"/>
<path d="M923 3840 c-29 -17 -53 -37 -53 -45 0 -19 7 -19 59 0 41 14 42 14 71
-17 17 -17 30 -26 30 -21 0 6 -10 17 -21 25 -13 8 -24 29 -28 51 l-6 37 -52
-30z"/>
<path d="M3288 3842 c15 -15 29 -26 31 -25 6 4 -41 53 -50 53 -4 0 4 -13 19
-28z"/>
<path d="M5715 3860 c-3 -5 -1 -10 4 -10 6 0 11 5 11 10 0 6 -2 10 -4 10 -3 0
-8 -4 -11 -10z"/>
<path d="M3211 3856 c2 -2 15 -9 29 -15 24 -11 24 -11 6 3 -16 13 -49 24 -35
12z"/>
<path d="M4875 3840 c-13 -6 -15 -9 -5 -9 8 0 22 4 30 9 18 12 2 12 -25 0z"/>
<path d="M4996 3810 c10 -20 19 -29 22 -21 2 7 -5 23 -17 35 l-22 21 17 -35z"/>
<path d="M4819 3813 c-13 -17 -13 -17 6 -3 11 8 22 16 24 17 2 2 0 3 -6 3 -6
0 -17 -8 -24 -17z"/>
<path d="M4913 3817 c10 -7 24 -30 32 -52 12 -34 14 -36 15 -14 0 28 -34 79
-53 79 -6 0 -3 -6 6 -13z"/>
<path d="M3402 3800 c0 -14 2 -19 5 -12 2 6 2 18 0 25 -3 6 -5 1 -5 -13z"/>
<path d="M1401 3764 c0 -11 3 -14 6 -6 3 7 2 16 -1 19 -3 4 -6 -2 -5 -13z"/>
<path d="M890 3736 c0 -2 8 -10 18 -17 15 -13 16 -12 3 4 -13 16 -21 21 -21
13z"/>
<path d="M997 3724 c-3 -4 -21 -10 -39 -14 -29 -7 -30 -8 -7 -9 14 -1 34 6 45
14 10 8 16 15 13 15 -3 0 -8 -3 -12 -6z"/>
<path d="M2155 3705 c3 -16 15 -38 27 -47 22 -19 88 -25 88 -8 0 6 11 22 25
35 13 14 20 25 15 25 -5 0 -19 -13 -32 -30 -12 -16 -27 -30 -34 -30 -29 0 -68
26 -81 55 l-14 30 6 -30z"/>
<path d="M6470 3666 c0 -2 8 -10 18 -17 15 -13 16 -12 3 4 -13 16 -21 21 -21
13z"/>
<path d="M585 3585 c-14 -14 -25 -36 -25 -51 l0 -27 27 24 c15 13 33 30 41 37
16 14 52 16 52 3 0 -5 -14 -21 -31 -36 -17 -14 -29 -28 -27 -31 3 -2 22 14 42
36 30 33 35 44 25 56 -19 23 -77 17 -104 -11z"/>
<path d="M6502 3580 c0 -14 2 -19 5 -12 2 6 2 18 0 25 -3 6 -5 1 -5 -13z"/>
<path d="M2340 3561 c0 -6 4 -13 10 -16 6 -3 7 1 4 9 -7 18 -14 21 -14 7z"/>
<path d="M913 3513 c-20 -7 -16 -78 5 -94 14 -11 15 -11 5 1 -16 18 -17 72 -1
88 13 13 11 14 -9 5z"/>
<path d="M1140 3493 c-21 -8 -50 -34 -50 -46 0 -5 8 1 19 14 23 29 80 31 113
4 l23 -19 -20 21 c-22 23 -61 35 -85 26z"/>
<path d="M580 3471 c0 -8 50 -34 56 -29 1 2 -11 11 -27 20 -16 9 -29 14 -29 9z"/>
<path d="M3906 3463 c-6 -14 -5 -15 5 -6 7 7 10 15 7 18 -3 3 -9 -2 -12 -12z"/>
<path d="M1478 3453 c7 -3 16 -2 19 1 4 3 -2 6 -13 5 -11 0 -14 -3 -6 -6z"/>
<path d="M852 3425 c0 -16 2 -22 5 -12 2 9 2 23 0 30 -3 6 -5 -1 -5 -18z"/>
<path d="M1041 3416 l-24 -31 28 27 c16 15 27 29 24 31 -2 3 -15 -10 -28 -27z"/>
<path d="M2532 3434 c10 -10 20 -15 24 -12 3 4 -5 12 -18 18 -22 12 -22 12 -6
-6z"/>
<path d="M2314 3394 c4 -8 -17 -16 -59 -25 -36 -7 -70 -16 -76 -20 -16 -9 -3
-55 17 -63 13 -5 14 -4 6 7 -10 11 0 17 48 30 72 20 70 20 70 3 0 -8 -12 -24
-26 -35 -15 -12 -22 -21 -17 -21 16 0 50 43 56 71 4 16 1 33 -9 45 -8 10 -13
14 -10 8z"/>
<path d="M973 3383 c9 -2 23 -2 30 0 6 3 -1 5 -18 5 -16 0 -22 -2 -12 -5z"/>
<path d="M870 3366 c0 -2 7 -7 16 -10 8 -3 12 -2 9 4 -6 10 -25 14 -25 6z"/>
<path d="M977 3364 c-3 -4 -21 -10 -39 -14 l-33 -8 29 -1 29 -1 -19 -22 -19
-23 23 20 c13 11 28 28 33 37 10 18 8 23 -4 12z"/>
<path d="M3278 3333 c6 -2 18 -2 25 0 6 3 1 5 -13 5 -14 0 -19 -2 -12 -5z"/>
<path d="M6160 3326 c0 -9 5 -16 10 -16 6 0 10 4 10 9 0 6 -4 13 -10 16 -5 3
-10 -1 -10 -9z"/>
<path d="M3420 3295 c-11 -14 -10 -14 15 -5 16 6 35 8 42 6 8 -3 11 -1 8 4 -9
15 -51 12 -65 -5z"/>
<path d="M888 3293 c6 -2 18 -2 25 0 6 3 1 5 -13 5 -14 0 -19 -2 -12 -5z"/>
<path d="M2364 3284 c-10 -8 -13 -12 -6 -9 8 4 26 11 40 15 22 7 23 8 6 9 -11
1 -29 -6 -40 -15z"/>
<path d="M6180 3281 c0 -5 5 -13 10 -16 6 -3 10 -2 10 4 0 5 -4 13 -10 16 -5
3 -10 2 -10 -4z"/>
<path d="M2220 3269 c0 -5 10 -9 22 -9 12 0 18 3 14 7 -10 11 -36 12 -36 2z"/>
<path d="M3064 3226 c11 -9 29 -16 40 -15 17 1 16 2 -6 9 -14 4 -32 11 -40 15
-7 3 -4 -1 6 -9z"/>
<path d="M3140 3230 c-9 -6 -10 -10 -3 -10 6 0 15 5 18 10 8 12 4 12 -15 0z"/>
<path d="M2137 3223 c-4 -3 -7 -43 -7 -87 -1 -88 -11 -110 -62 -133 -30 -13
-38 -9 -38 22 0 13 -6 27 -13 33 -10 8 -12 2 -9 -29 2 -22 -1 -46 -8 -54 -9
-11 -9 -15 -1 -15 6 0 11 -15 11 -34 l0 -33 -75 -1 c-42 -1 -80 -4 -85 -7 -6
-4 -10 -57 -10 -121 l0 -114 48 -1 c26 -1 57 0 70 1 16 1 22 -4 22 -19 0 -11
6 -26 13 -33 6 -7 13 -33 14 -58 2 -56 5 -71 11 -65 3 3 11 0 19 -6 7 -6 32
-11 55 -11 34 1 48 7 66 27 25 29 27 51 10 92 -16 38 -15 37 -33 20 -15 -16
-4 -34 14 -23 5 3 12 -5 15 -19 7 -25 -7 -64 -28 -77 -18 -12 -91 -9 -104 4
-14 14 -16 78 -2 78 5 0 9 8 8 18 -4 50 2 72 21 72 12 0 23 11 30 30 5 17 7
28 2 26 -4 -3 -9 21 -10 53 -1 43 3 62 15 72 14 11 19 10 34 -9 24 -29 27 -28
32 12 2 19 0 32 -4 30 -4 -3 -8 -14 -8 -25 0 -11 -4 -17 -10 -14 -5 3 -10 19
-10 36 0 27 2 29 38 27 42 -1 101 30 94 50 -3 10 -8 7 -19 -7 -20 -30 -33 -26
-71 19 l-33 40 59 0 c59 0 60 0 67 -32 4 -18 7 -37 6 -42 -2 -10 36 -39 59
-44 62 -15 78 -13 94 9 24 35 20 39 -28 33 -47 -7 -58 1 -49 34 l5 22 25 -20
c33 -26 85 -26 108 0 21 23 24 101 5 142 -11 22 -10 30 0 43 8 10 0 7 -21 -6
-34 -23 -34 -23 -31 -92 5 -88 0 -102 -30 -86 -32 17 -38 28 -38 77 0 35 4 44
24 53 13 6 27 20 29 30 4 15 0 19 -24 19 -28 0 -29 1 -29 50 l0 50 -113 0
c-63 0 -117 -3 -120 -7z m190 -85 c1 -41 0 -48 -7 -30 -12 27 -31 28 -55 2
-10 -11 -13 -20 -7 -20 23 0 12 -30 -10 -31 l-23 -2 23 -4 c40 -8 23 -23 -27
-23 l-49 0 -1 80 -1 80 78 0 78 0 1 -52z m82 -21 c-2 -1 -12 -9 -21 -16 -15
-12 -18 -11 -18 3 0 10 8 16 22 16 12 0 19 -1 17 -3z m-82 -79 c-3 -7 -5 -2
-5 12 0 14 2 19 5 13 2 -7 2 -19 0 -25z m-200 -30 c-3 -8 -6 -5 -6 6 -1 11 2
17 5 13 3 -3 4 -12 1 -19z m31 -66 c33 -41 34 -42 11 -42 -30 0 -69 38 -69 68
0 32 16 25 58 -26z m182 29 c0 -11 -4 -23 -10 -26 -6 -4 -10 5 -10 19 0 14 5
26 10 26 6 0 10 -9 10 -19z m-220 -85 c0 -8 -9 -24 -20 -37 l-19 -24 -1 70 0
70 20 -33 c11 -18 20 -39 20 -46z m-121 -62 c39 -18 40 -21 41 -65 0 -43 -3
-48 -31 -60 -24 -9 -39 -10 -60 -2 -16 6 -29 7 -29 2 0 -5 -9 -9 -20 -9 -18 0
-20 7 -20 81 l0 82 40 -6 c21 -3 57 -13 79 -23z m41 11 c0 -19 -11 -19 -36 0
-18 14 -18 14 9 15 17 0 27 -5 27 -15z"/>
<path d="M3526 3185 c-9 -26 -7 -32 5 -12 6 10 9 21 6 23 -2 3 -7 -2 -11 -11z"/>
<path d="M2475 3170 c-3 -5 -1 -10 4 -10 6 0 11 5 11 10 0 6 -2 10 -4 10 -3 0
-8 -4 -11 -10z"/>
<path d="M3680 3176 c0 -2 7 -6 15 -10 8 -3 15 -1 15 4 0 6 -7 10 -15 10 -8 0
-15 -2 -15 -4z"/>
<path d="M1280 3124 c-17 -9 -20 -14 -9 -14 9 0 22 7 29 15 15 18 13 18 -20
-1z"/>
<path d="M1889 3090 c-22 -19 -22 -20 -4 -18 15 2 21 -4 23 -24 3 -23 -2 -30
-29 -40 l-32 -13 28 -33 c29 -35 45 -41 45 -16 0 9 11 30 25 46 20 24 25 37
19 61 -4 20 -2 33 7 39 11 8 10 9 -3 4 -10 -3 -18 -1 -18 4 0 17 -37 11 -61
-10z"/>
<path d="M3307 3084 c-3 -4 -21 -10 -39 -14 -29 -7 -30 -8 -7 -9 14 -1 34 6
45 14 10 8 16 15 13 15 -3 0 -8 -3 -12 -6z"/>
<path d="M700 3045 c0 -8 4 -15 10 -15 5 0 7 7 4 15 -4 8 -8 15 -10 15 -2 0
-4 -7 -4 -15z"/>
<path d="M2526 3025 c4 -8 8 -15 10 -15 2 0 4 7 4 15 0 8 -4 15 -10 15 -5 0
-7 -7 -4 -15z"/>
<path d="M752 2997 c9 -9 26 -17 38 -17 16 0 20 -4 16 -16 -3 -8 -2 -12 4 -9
18 11 10 33 -14 39 -13 3 -32 9 -43 13 -17 6 -17 6 -1 -10z"/>
<path d="M6111 2961 c-21 -16 -23 -24 -19 -65 4 -30 13 -52 24 -61 29 -21 38
-6 9 17 -31 24 -33 65 -4 102 24 31 22 32 -10 7z"/>
<path d="M6220 2976 c0 -2 8 -10 18 -17 15 -13 16 -12 3 4 -13 16 -21 21 -21
13z"/>
<path d="M660 2963 c0 -6 8 -17 18 -24 16 -13 16 -13 2 6 -8 11 -16 22 -17 24
-2 2 -3 0 -3 -6z"/>
<path d="M728 2913 c6 -2 18 -2 25 0 6 3 1 5 -13 5 -14 0 -19 -2 -12 -5z"/>
<path d="M6019 2875 c26 -12 31 -18 22 -28 -14 -18 -87 -7 -83 13 7 31 -43
-18 -51 -51 -8 -31 -6 -36 28 -67 35 -32 40 -34 86 -28 29 4 57 2 70 -4 15 -9
24 -8 35 0 17 15 9 30 -16 30 -23 0 -36 18 -23 31 6 6 19 6 36 0 27 -10 41 -3
29 15 -4 5 -20 14 -37 19 -22 8 -30 17 -30 34 0 18 -9 26 -40 37 -52 18 -69
17 -26 -1z m-30 -66 c65 -21 81 -28 81 -39 0 -26 -143 6 -148 34 -4 19 17 21
67 5z m-7 -69 c10 0 18 -4 18 -10 0 -5 -5 -10 -11 -10 -18 0 -49 20 -49 32 0
9 3 9 12 0 7 -7 20 -12 30 -12z"/>
<path d="M2326 2841 c-4 -5 3 -7 14 -4 23 6 26 13 6 13 -8 0 -17 -4 -20 -9z"/>
<path d="M3980 2833 c0 -10 5 -24 11 -30 6 -6 9 -21 7 -34 -2 -20 -9 -24 -38
-25 -19 0 -45 -4 -57 -8 -16 -5 -25 -1 -37 16 -9 12 -16 18 -16 12 0 -24 29
-46 68 -51 36 -5 47 -2 67 17 29 27 34 90 10 110 -12 10 -15 9 -15 -7z"/>
<path d="M859 2790 l-34 -32 33 26 c41 31 45 32 91 4 36 -21 36 -21 16 0 -36
37 -69 38 -106 2z"/>
<path d="M100 2792 c19 -9 41 -29 50 -44 13 -25 13 -31 0 -55 -9 -15 -28 -34
-43 -43 -25 -14 -30 -13 -57 2 -17 9 -30 13 -30 8 0 -18 41 -31 83 -27 30 2
51 12 75 34 35 33 41 49 17 39 -16 -6 -19 -1 -29 46 -6 28 -49 58 -83 58 -11
0 -4 -7 17 -18z"/>
<path d="M3138 2803 c6 -2 18 -2 25 0 6 3 1 5 -13 5 -14 0 -19 -2 -12 -5z"/>
<path d="M6210 2776 c0 -11 18 -15 78 -18 42 -2 80 1 84 7 9 13 14 11 -79 19
-69 5 -83 4 -83 -8z"/>
<path d="M987 2737 c6 -30 -30 -74 -70 -86 l-32 -9 31 -1 c20 -1 38 7 52 22
24 26 39 81 24 90 -5 4 -7 -3 -5 -16z"/>
<path d="M1517 2735 c-12 -8 -20 -30 -23 -57 -2 -24 -1 -34 2 -23 15 51 64 82
105 65 30 -13 40 -40 15 -40 -7 0 -19 -6 -25 -14 -11 -12 -7 -13 26 -3 48 14
46 12 34 35 -14 26 -65 46 -97 38 -17 -5 -23 -3 -19 4 8 13 4 12 -18 -5z"/>
<path d="M6250 2710 c20 -13 77 -13 85 0 4 6 -14 10 -47 10 -38 0 -49 -3 -38
-10z"/>
<path d="M2303 2680 c1 -14 6 -15 34 -7 29 9 38 7 66 -13 25 -18 28 -19 16 -4
-9 10 -15 24 -12 30 2 6 -17 10 -51 10 -45 0 -54 -3 -53 -16z"/>
<path d="M2810 2676 c0 -41 -36 -76 -79 -76 -20 0 -43 6 -50 13 -11 10 -12 8
-3 -9 7 -12 19 -24 27 -28 9 -3 13 -2 10 4 -4 6 8 10 28 10 20 0 41 7 51 19
17 18 35 91 22 91 -3 0 -6 -11 -6 -24z"/>
<path d="M1000 2670 c0 -5 7 -10 15 -10 8 0 15 5 15 10 0 6 -7 10 -15 10 -8 0
-15 -4 -15 -10z"/>
<path d="M3140 2676 c0 -15 62 -136 70 -136 15 0 12 18 -12 82 -16 40 -28 58
-40 58 -10 0 -18 -2 -18 -4z"/>
<path d="M3220 2640 c6 -11 13 -20 16 -20 2 0 0 9 -6 20 -6 11 -13 20 -16 20
-2 0 0 -9 6 -20z"/>
<path d="M4184 2650 c-12 -5 -25 -13 -28 -19 -5 -8 49 14 63 26 8 6 -14 2 -35
-7z"/>
<path d="M6557 2646 c-6 -15 -2 -16 86 -31 36 -6 38 -5 35 17 -3 20 -9 23 -59
26 -43 3 -58 0 -62 -12z"/>
<path d="M2274 2626 c-3 -8 -4 -23 -2 -33 3 -11 6 -6 9 15 6 34 2 42 -7 18z"/>
<path d="M2446 2615 c-9 -26 -7 -32 5 -12 6 10 9 21 6 23 -2 3 -7 -2 -11 -11z"/>
<path d="M5055 2606 c-37 -16 -83 -68 -91 -102 -6 -23 -2 -73 7 -114 3 -10 -5
-16 -26 -18 -55 -6 -52 -19 20 -92 l69 -69 -12 -97 c-6 -54 -9 -101 -6 -106 3
-4 27 3 55 17 44 23 49 24 49 7 0 -9 -7 -29 -16 -42 l-16 -25 21 24 c12 13 21
33 21 45 0 16 11 27 34 39 35 16 36 16 119 -23 47 -22 89 -40 95 -40 5 0 7 19
4 46 -5 51 4 63 48 64 18 0 21 3 11 9 -10 7 -11 13 -2 30 7 11 14 21 17 21 3
0 3 -4 0 -9 -3 -5 0 -14 8 -20 16 -14 109 -25 137 -16 19 6 19 8 4 25 -21 23
-13 53 18 68 18 9 16 10 -18 6 -32 -4 -37 -3 -22 6 29 19 20 33 -17 27 -19 -3
-39 0 -45 6 -8 8 -11 8 -11 0 0 -15 48 -53 66 -53 34 0 -1 -46 -44 -57 -30 -7
-75 15 -80 40 -3 12 3 17 22 17 40 0 32 27 -9 32 -44 5 -46 3 -34 -30 13 -34
4 -69 -22 -83 -25 -13 -39 1 -39 40 0 19 4 22 21 18 16 -4 20 -1 18 16 -4 29
19 70 33 61 6 -4 8 -3 4 4 -3 5 6 24 20 42 15 17 23 35 18 39 -5 5 -48 16 -96
26 -94 19 -102 26 -112 100 -14 99 -130 163 -221 121z m110 -36 l26 -10 -19
-28 c-10 -15 -31 -50 -47 -79 -23 -43 -33 -52 -62 -58 -43 -8 -53 1 -59 51 -6
48 11 81 55 111 37 25 65 28 106 13z m56 -79 c40 -69 -27 -150 -116 -142 -40
3 -51 14 -20 20 24 5 37 19 70 79 22 39 42 72 45 72 3 0 12 -13 21 -29z m152
-131 c42 -7 77 -16 77 -19 0 -4 -25 -31 -56 -61 l-56 -55 7 -70 c3 -38 9 -80
12 -93 5 -22 3 -21 -68 13 -40 19 -80 35 -89 35 -9 0 -49 -16 -89 -35 -71 -34
-73 -35 -68 -13 3 13 9 55 12 93 l7 70 -56 55 c-31 30 -56 58 -56 62 0 16 40
7 76 -17 71 -48 185 -28 230 40 11 17 20 22 28 16 6 -5 46 -15 89 -21z"/>
<path d="M5090 2530 c-18 -12 -2 -12 25 0 13 6 15 9 5 9 -8 0 -22 -4 -30 -9z"/>
<path d="M5040 2436 c0 -17 14 -29 23 -20 8 8 -3 34 -14 34 -5 0 -9 -6 -9 -14z"/>
<path d="M293 2595 c-6 -7 -9 -15 -6 -18 6 -7 -51 -37 -70 -37 -7 0 -23 9 -35
20 -23 21 -32 14 -10 -8 7 -7 8 -12 2 -12 -6 0 -15 5 -22 12 -7 7 -12 9 -12 4
0 -4 7 -15 16 -23 11 -12 18 -13 23 -5 5 8 17 9 41 2 38 -11 53 -3 76 43 17
32 16 42 -3 22z"/>
<path d="M1554 2592 c-8 -12 -15 -14 -26 -7 -7 6 -5 2 6 -8 19 -18 20 -18 28
4 10 27 6 34 -8 11z"/>
<path d="M2791 2590 c-13 -11 -19 -20 -14 -20 6 0 18 9 28 20 23 25 17 25 -14
0z"/>
<path d="M6510 2582 c-14 -13 -35 -28 -47 -33 -12 -4 -27 -18 -34 -31 -11 -21
-11 -22 4 -9 10 7 17 10 17 6 0 -4 13 7 29 24 17 18 35 29 44 25 9 -3 16 2 20
15 7 30 -4 31 -33 3z"/>
<path d="M4127 2584 c-15 -15 -6 -47 22 -75 16 -16 35 -29 41 -29 6 0 -1 10
-15 23 -15 12 -30 37 -33 55 -4 19 -10 30 -15 26z"/>
<path d="M1177 2569 c7 -7 15 -10 18 -7 3 3 -2 9 -12 12 -14 6 -15 5 -6 -5z"/>
<path d="M4074 2572 c-17 -12 -44 -56 -44 -72 1 -8 7 -1 14 16 8 17 24 39 37
48 13 9 19 16 14 16 -6 0 -15 -4 -21 -8z"/>
<path d="M763 2548 c-11 -13 -23 -30 -27 -38 -6 -13 -5 -13 6 0 7 9 23 26 36
38 12 12 18 22 14 22 -5 0 -18 -10 -29 -22z"/>
<path d="M848 2563 c8 -3 22 -19 33 -37 11 -17 19 -24 19 -15 0 17 -41 59 -56
58 -5 0 -3 -3 4 -6z"/>
<path d="M2738 2563 c7 -3 16 -2 19 1 4 3 -2 6 -13 5 -11 0 -14 -3 -6 -6z"/>
<path d="M1070 2553 c0 -10 40 -36 46 -30 3 2 -7 12 -21 21 -14 9 -25 13 -25
9z"/>
<path d="M2520 2534 c-14 -15 -13 -16 8 -10 32 10 77 -10 91 -40 16 -35 14
-48 -10 -78 -15 -19 -30 -26 -55 -26 -31 0 -34 2 -24 19 16 32 12 58 -16 88
l-25 28 22 -32 c16 -23 20 -39 15 -60 -12 -51 -11 -57 7 -61 31 -6 66 7 89 34
12 13 27 23 34 20 13 -5 7 31 -7 40 -5 3 -9 13 -9 23 0 46 -93 88 -120 55z"/>
<path d="M2441 2531 c-7 -5 -11 -13 -7 -19 3 -6 -4 -18 -16 -26 -12 -9 -19
-18 -16 -21 11 -11 69 49 60 62 -4 7 -13 9 -21 4z"/>
<path d="M3120 2524 c10 -16 19 -19 44 -15 l31 6 -30 3 c-16 2 -36 9 -44 15
-12 10 -12 9 -1 -9z"/>
<path d="M6559 2521 c13 -12 31 -21 41 -21 10 0 20 -5 22 -12 3 -7 7 -6 11 5
5 13 1 17 -21 17 -15 0 -39 7 -52 16 l-25 16 24 -21z"/>
<path d="M121 2514 c0 -11 3 -14 6 -6 3 7 2 16 -1 19 -3 4 -6 -2 -5 -13z"/>
<path d="M6655 2520 c-3 -6 1 -7 9 -4 18 7 21 14 7 14 -6 0 -13 -4 -16 -10z"/>
<path d="M1161 2490 c-16 -22 -30 -30 -54 -31 l-32 -1 27 -9 c31 -12 73 10 84
43 9 31 -1 30 -25 -2z"/>
<path d="M1240 2482 c0 -43 -29 -64 -77 -56 -36 5 -42 3 -71 -30 -18 -20 -32
-44 -32 -54 1 -10 8 -2 18 18 9 19 30 41 45 48 24 12 31 11 62 -8 18 -11 36
-26 39 -33 2 -7 5 -2 5 11 1 12 -4 22 -10 22 -6 0 1 14 15 31 27 31 34 63 16
74 -6 4 -10 -6 -10 -23z"/>
<path d="M2279 2505 c-4 -3 -5 -15 -2 -26 4 -14 14 -19 37 -18 l31 1 -27 11
c-15 6 -29 17 -30 25 -2 7 -6 11 -9 7z"/>
<path d="M797 2488 c2 -5 15 -8 29 -8 13 0 24 3 24 8 0 4 -13 7 -29 7 -16 0
-27 -3 -24 -7z"/>
<path d="M130 2480 c0 -15 52 -50 74 -50 12 0 31 7 42 16 18 15 18 15 -3 5
-35 -17 -62 -13 -88 14 -14 13 -25 20 -25 15z"/>
<path d="M3141 2474 c0 -11 3 -14 6 -6 3 7 2 16 -1 19 -3 4 -6 -2 -5 -13z"/>
<path d="M1300 2469 c0 -5 5 -7 10 -4 6 3 10 8 10 11 0 2 -4 4 -10 4 -5 0 -10
-5 -10 -11z"/>
<path d="M2367 2473 c-4 -3 -7 -13 -7 -22 1 -13 3 -13 11 2 11 19 8 33 -4 20z"/>
<path d="M6597 2448 c-22 -23 -20 -27 19 -32 16 -2 22 -1 13 1 -11 3 -15 12
-11 29 5 28 3 29 -21 2z"/>
<path d="M5620 2435 c-31 -33 -75 -34 -84 -2 -5 18 -8 19 -16 7 -18 -29 12
-55 64 -55 31 0 41 2 30 8 -14 8 -12 13 12 38 15 16 25 29 23 29 -3 0 -16 -11
-29 -25z m-53 -41 c-3 -3 -12 -4 -19 -1 -8 3 -5 6 6 6 11 1 17 -2 13 -5z"/>
<path d="M6466 2445 c9 -22 38 -35 76 -34 l33 1 -32 8 c-18 4 -44 15 -57 24
-22 14 -25 14 -20 1z"/>
<path d="M3723 2423 c9 -2 25 -2 35 0 9 3 1 5 -18 5 -19 0 -27 -2 -17 -5z"/>
<path d="M4079 2417 c5 -5 26 -7 47 -5 l39 3 -47 5 c-26 3 -43 1 -39 -3z"/>
<path d="M2223 2394 c21 -25 22 -72 1 -102 -8 -12 -10 -22 -5 -22 6 0 17 -15
25 -32 11 -25 15 -28 15 -12 1 11 -4 25 -9 30 -15 15 9 33 46 36 29 2 44 13
44 33 0 6 -4 4 -9 -4 -7 -10 -13 -11 -30 -2 -11 7 -21 17 -22 24 0 7 -17 25
-37 42 -20 16 -29 20 -19 9z m51 -73 c3 -5 -1 -11 -9 -15 -9 -3 -15 0 -15 9 0
16 16 20 24 6z"/>
<path d="M6353 2388 c-13 -6 -23 -15 -23 -21 0 -5 6 -4 14 2 8 7 27 16 43 21
19 6 22 8 8 8 -11 1 -30 -4 -42 -10z"/>
<path d="M6494 2374 c-19 -15 -19 -15 1 -6 11 5 27 12 35 15 13 5 13 6 -1 6
-8 1 -24 -6 -35 -15z"/>
<path d="M2743 2345 c0 -22 2 -30 4 -17 2 12 2 30 0 40 -3 9 -5 -1 -4 -23z"/>
<path d="M4027 2373 c-57 -9 -21 -28 57 -31 70 -3 77 -1 74 15 -2 14 -14 18
-53 19 -28 1 -63 -1 -78 -3z"/>
<path d="M4540 2370 c12 -10 11 -11 -9 -6 -30 6 -61 -9 -61 -31 0 -16 6 -16
108 3 25 5 32 3 32 -9 0 -9 -13 -18 -32 -22 -76 -14 -117 -28 -111 -38 6 -9
85 -4 131 9 28 8 29 -9 2 -36 -11 -11 -16 -20 -11 -20 10 0 71 85 71 99 0 5
-8 8 -17 7 -13 -1 -18 6 -17 22 0 12 0 22 0 23 -1 0 -23 2 -51 5 -39 4 -47 3
-35 -6z"/>
<path d="M5930 2370 c-9 -6 -10 -10 -3 -10 6 0 15 5 18 10 8 12 4 12 -15 0z"/>
<path d="M5650 2325 c0 -26 -5 -45 -11 -45 -7 0 -8 -7 -3 -17 4 -10 10 -43 13
-73 l6 -55 63 -3 c56 -3 62 -5 62 -25 1 -20 2 -21 14 -5 7 10 31 21 52 26 l39
8 3 79 c2 44 7 82 11 85 4 3 2 20 -6 38 l-13 32 -115 0 -115 0 0 -45z m173
-28 c36 -39 33 -69 -8 -73 -17 -2 -39 -14 -50 -29 -19 -23 -22 -24 -43 -9 -20
13 -21 13 -16 -1 3 -8 1 -15 -4 -15 -19 0 -7 108 13 130 19 21 7 28 -13 8 -9
-9 -12 -8 -12 4 0 12 11 16 52 16 45 0 56 -4 81 -31z m27 11 c0 -12 -1 -19 -3
-17 -1 2 -9 12 -16 22 -12 14 -11 17 3 17 10 0 16 -8 16 -22z m0 -118 c0 -16
-6 -19 -35 -18 -38 1 -44 23 -7 23 11 0 24 4 28 8 11 11 14 9 14 -13z"/>
<path d="M5735 2290 c-8 -12 17 -23 41 -18 10 1 19 9 22 16 5 15 -54 17 -63 2z"/>
<path d="M3619 2342 c9 -16 23 -21 73 -24 64 -4 88 4 88 28 0 10 -6 11 -31 2
-29 -10 -64 -7 -118 8 -21 6 -22 5 -12 -14z"/>
<path d="M4251 2346 c-10 -12 -1 -15 49 -21 67 -8 85 -1 56 21 -25 18 -90 18
-105 0z"/>
<path d="M1278 2343 c7 -3 16 -2 19 1 4 3 -2 6 -13 5 -11 0 -14 -3 -6 -6z"/>
<path d="M2433 2340 c62 -12 66 -25 23 -69 -35 -36 -66 -45 -66 -18 0 6 -7 19
-17 29 -14 16 -14 20 -2 36 8 10 3 7 -9 -7 -21 -21 -22 -25 -8 -33 8 -5 18
-24 22 -44 5 -28 2 -40 -17 -60 -29 -31 -79 -34 -79 -4 0 11 -4 20 -10 20 -11
0 -8 -35 3 -46 4 -4 7 -15 7 -25 0 -9 7 -19 15 -23 13 -4 14 -2 5 14 -9 17 -8
20 10 20 35 0 59 18 75 56 16 40 30 38 51 -10 14 -28 14 -28 10 -4 -3 14 -9
33 -12 42 -4 11 2 19 22 26 39 15 74 -1 74 -34 0 -14 4 -27 8 -30 5 -3 6 8 4
25 -2 17 3 39 12 54 21 32 21 32 -16 40 -18 4 -40 18 -51 31 -14 18 -28 24
-55 23 l-37 -1 38 -8z m113 -61 c11 -19 -11 -30 -46 -23 -30 7 -32 8 -15 21
23 16 51 17 61 2z"/>
<path d="M6304 2336 c-3 -8 -4 -23 -2 -33 3 -11 6 -6 9 15 6 34 2 42 -7 18z"/>
<path d="M5922 2315 c0 -16 2 -22 5 -12 2 9 2 23 0 30 -3 6 -5 -1 -5 -18z"/>
<path d="M6471 2308 c-1 -15 -5 -30 -11 -33 -5 -3 -10 -11 -10 -17 0 -5 11 0
24 13 14 13 21 26 17 29 -4 3 -11 12 -14 20 -3 9 -6 4 -6 -12z"/>
<path d="M913 2310 c-22 -9 -60 -57 -51 -65 2 -2 17 7 32 20 36 31 42 31 90
-1 l38 -26 -7 23 c-14 46 -58 67 -102 49z"/>
<path d="M1158 2313 c7 -3 16 -2 19 1 4 3 -2 6 -13 5 -11 0 -14 -3 -6 -6z"/>
<path d="M5501 2304 c0 -11 3 -14 6 -6 3 7 2 16 -1 19 -3 4 -6 -2 -5 -13z"/>
<path d="M1109 2293 c-13 -17 -13 -17 6 -3 11 8 22 16 24 17 2 2 0 3 -6 3 -6
0 -17 -8 -24 -17z"/>
<path d="M1190 2306 c0 -2 7 -7 16 -10 8 -3 12 -2 9 4 -6 10 -25 14 -25 6z"/>
<path d="M2681 2298 c-2 -30 21 -66 49 -78 37 -15 57 -62 41 -96 -12 -28 -15
-45 -3 -27 8 12 102 6 102 -8 0 -12 -51 -49 -69 -50 -12 0 -11 -2 4 -8 23 -9
59 20 74 61 10 26 9 27 -18 22 -41 -8 -63 7 -77 55 -11 39 -10 44 13 71 28 33
14 41 -17 10 -11 -11 -27 -20 -35 -20 -18 0 -48 32 -57 63 -4 15 -6 17 -7 5z"/>
<path d="M6528 2303 c7 -3 16 -2 19 1 4 3 -2 6 -13 5 -11 0 -14 -3 -6 -6z"/>
<path d="M2750 2296 c0 -2 8 -10 18 -17 15 -13 16 -12 3 4 -13 16 -21 21 -21
13z"/>
<path d="M4220 2287 c0 -11 13 -17 43 -21 95 -12 116 -12 121 1 7 18 -5 22
-88 30 -65 5 -76 4 -76 -10z"/>
<path d="M2300 2271 c0 -11 5 -23 10 -26 6 -3 10 -15 10 -26 0 -10 5 -19 10
-19 6 0 10 9 10 20 0 11 -4 20 -10 20 -5 0 -10 9 -10 19 0 11 -4 23 -10 26 -5
3 -10 -3 -10 -14z"/>
<path d="M6585 2280 c3 -5 8 -10 11 -10 2 0 4 5 4 10 0 6 -5 10 -11 10 -5 0
-7 -4 -4 -10z"/>
<path d="M5949 2257 c16 -17 34 -27 50 -26 l26 1 -29 8 c-15 5 -38 17 -50 27
-17 14 -16 12 3 -10z"/>
<path d="M6310 2270 c0 -5 11 -17 25 -28 14 -11 25 -23 25 -27 0 -14 -60 -76
-61 -63 0 7 -7 -2 -15 -19 -8 -18 -18 -33 -23 -33 -5 0 -16 -3 -25 -6 -12 -4
-16 0 -16 15 0 12 -4 21 -10 21 -5 0 -10 -9 -10 -19 0 -11 -4 -23 -10 -26 -5
-3 -10 -1 -10 4 0 6 -7 11 -15 11 -25 0 -18 46 11 69 15 12 22 21 17 21 -5 0
-22 -13 -38 -30 -15 -16 -32 -27 -37 -24 -4 3 -8 0 -8 -5 0 -6 4 -11 9 -11 5
0 7 -8 5 -18 -7 -25 46 -72 88 -78 27 -5 40 -1 63 18 l29 25 34 -23 c44 -31
88 -31 113 -1 l18 22 1 -23 c0 -23 0 -23 30 -6 16 10 32 25 35 33 4 11 1 11
-14 -3 -18 -17 -19 -16 -26 22 -3 21 -5 43 -3 48 3 12 -32 64 -44 64 -5 0 0
-12 11 -26 12 -15 21 -32 21 -39 0 -16 -33 -30 -38 -16 -6 19 -22 12 -22 -9 0
-20 -19 -29 -21 -10 -1 6 -2 14 -3 19 -3 27 -14 17 -20 -19 -3 -22 -11 -40
-17 -40 -6 0 -8 9 -4 20 5 16 2 20 -14 20 -15 0 -21 6 -21 24 0 33 37 76 66
76 15 0 24 6 24 15 0 9 -9 15 -25 15 -14 0 -37 11 -50 25 -14 13 -25 20 -25
15z m-30 -204 c0 -17 -14 -29 -23 -20 -8 8 3 34 14 34 5 0 9 -6 9 -14z"/>
<path d="M2870 2259 c13 -6 28 -15 32 -22 6 -9 8 -9 8 0 0 14 -32 33 -52 32
-7 0 -2 -5 12 -10z"/>
<path d="M931 2244 c-7 -8 -11 -17 -9 -20 3 -2 13 5 23 16 10 11 14 20 9 20
-5 -1 -15 -8 -23 -16z"/>
<path d="M448 2243 c7 -3 16 -2 19 1 4 3 -2 6 -13 5 -11 0 -14 -3 -6 -6z"/>
<path d="M366 2211 c-20 -26 -20 -26 0 -9 24 21 44 8 44 -27 0 -47 -42 -59
-63 -19 -8 15 -17 22 -20 16 -4 -5 4 -20 17 -33 29 -28 25 -39 -13 -39 -35 0
-71 33 -72 68 l0 27 -10 -24 c-20 -50 34 -90 107 -78 25 4 33 3 28 -6 -4 -7
10 5 30 27 39 42 44 51 22 43 -10 -4 -15 6 -20 33 -7 47 -25 55 -50 21z"/>
<path d="M500 2221 c0 -8 -10 -26 -22 -40 -19 -21 -20 -23 -3 -11 11 8 23 20
28 25 4 6 11 4 17 -5 5 -8 10 -10 10 -4 0 5 -7 19 -15 30 -10 14 -14 15 -15 5z"/>
<path d="M851 2214 c0 -11 3 -14 6 -6 3 7 2 16 -1 19 -3 4 -6 -2 -5 -13z"/>
<path d="M1378 2223 c7 -3 16 -2 19 1 4 3 -2 6 -13 5 -11 0 -14 -3 -6 -6z"/>
<path d="M4288 2203 c6 -2 18 -2 25 0 6 3 1 5 -13 5 -14 0 -19 -2 -12 -5z"/>
<path d="M5386 2163 c-6 -14 -5 -15 5 -6 7 7 10 15 7 18 -3 3 -9 -2 -12 -12z"/>
<path d="M2553 2147 c0 -9 8 -19 17 -22 10 -3 22 -15 28 -28 6 -12 11 -16 11
-10 1 7 -12 27 -27 44 -20 23 -29 27 -29 16z"/>
<path d="M2508 2143 c6 -2 18 -2 25 0 6 3 1 5 -13 5 -14 0 -19 -2 -12 -5z"/>
<path d="M4860 2136 c0 -2 8 -10 18 -17 15 -13 16 -12 3 4 -13 16 -21 21 -21
13z"/>
<path d="M6518 2133 c6 -2 18 -2 25 0 6 3 1 5 -13 5 -14 0 -19 -2 -12 -5z"/>
<path d="M4740 2100 c-6 -11 -8 -20 -6 -20 3 0 10 9 16 20 6 11 8 20 6 20 -3
0 -10 -9 -16 -20z"/>
<path d="M2396 2094 c-11 -8 -16 -14 -10 -14 13 0 39 18 34 24 -3 2 -14 -2
-24 -10z"/>
<path d="M1300 2096 c0 -2 8 -10 18 -17 15 -13 16 -12 3 4 -13 16 -21 21 -21
13z"/>
<path d="M4310 2084 c-42 -18 -69 -50 -70 -82 0 -32 -20 -17 -21 16 0 26 -1
26 -9 5 -5 -13 -16 -23 -25 -23 -8 0 -25 -20 -37 -45 -21 -42 -38 -58 -38 -35
0 6 -5 10 -11 10 -6 0 -4 -8 4 -20 13 -18 12 -26 0 -63 -8 -23 -19 -47 -24
-53 -11 -13 9 -34 33 -34 11 0 18 7 18 19 0 24 16 36 23 19 3 -8 6 -6 6 5 1
14 10 17 49 17 46 0 49 -2 61 -35 7 -19 17 -35 23 -35 6 0 7 7 3 18 -4 9 -15
38 -24 64 -9 26 -22 48 -29 48 -9 0 -8 7 4 26 10 14 23 23 31 20 8 -3 11 -1 8
4 -7 12 -3 12 19 4 9 -3 14 -10 11 -14 -9 -14 13 -21 32 -11 10 5 29 14 43 20
23 10 22 11 -13 7 -41 -5 -67 1 -67 15 0 6 8 5 19 -1 25 -13 34 -13 26 0 -4 6
8 10 29 10 19 0 38 5 41 10 3 6 11 10 16 10 6 0 7 -6 3 -12 -5 -9 -2 -9 9 1
29 23 19 28 -42 18 -77 -12 -91 -7 -91 37 0 25 7 40 26 55 31 24 14 27 -36 5z
m-8 -64 c-5 -45 -22 -55 -22 -12 0 21 15 52 25 52 0 0 -1 -18 -3 -40z m-32
-26 c0 -21 -4 -33 -10 -29 -17 10 -11 65 7 65 2 0 3 -16 3 -36z m-43 -117 c23
-14 15 -37 -13 -37 -23 0 -25 2 -14 16 11 13 10 16 -8 21 -25 6 -26 7 -10 36
l11 22 11 -25 c6 -14 16 -29 23 -33z"/>
<path d="M5395 2090 c-4 -6 5 -10 19 -10 14 0 26 5 26 10 0 6 -9 10 -19 10
-11 0 -23 -4 -26 -10z"/>
<path d="M4946 2067 c3 -10 9 -15 12 -12 3 3 0 11 -7 18 -10 9 -11 8 -5 -6z"/>
<path d="M5824 2058 l-19 -23 23 19 c21 18 27 26 19 26 -2 0 -12 -10 -23 -22z"/>
<path d="M2574 2042 c3 -18 2 -31 -2 -28 -5 3 -16 -4 -25 -15 -19 -22 -95 -27
-115 -7 -9 9 -12 8 -12 -4 0 -45 103 -65 140 -28 11 11 23 20 26 20 11 0 -8
-45 -25 -58 -15 -12 -14 -15 9 -34 15 -12 26 -15 28 -9 2 6 8 11 14 11 6 0 8
-7 4 -15 -3 -9 0 -15 9 -15 8 0 15 9 15 20 0 11 6 23 13 26 8 3 11 17 9 38 -2
19 1 43 7 54 13 25 4 34 -21 19 -16 -10 -22 -9 -34 7 -10 15 -14 16 -15 5 0
-8 -7 0 -15 16 l-15 30 5 -33z m76 -67 c0 -14 -47 -52 -55 -43 -9 9 8 47 24
51 28 8 31 7 31 -8z m-110 -10 c-7 -8 -26 -14 -44 -14 l-31 2 30 4 c17 3 34 9
40 14 15 15 19 10 5 -6z"/>
<path d="M4730 2057 c0 -27 54 -77 82 -76 18 0 16 3 -12 12 -24 8 -41 23 -52
47 -11 22 -18 28 -18 17z"/>
<path d="M308 2053 c6 -2 18 -2 25 0 6 3 1 5 -13 5 -14 0 -19 -2 -12 -5z"/>
<path d="M5968 2016 c3 -37 0 -46 -23 -65 -15 -11 -23 -21 -18 -21 5 0 20 11
33 25 24 25 32 77 14 95 -5 5 -8 -8 -6 -34z"/>
<path d="M5990 2043 c0 -28 16 -47 35 -40 25 10 15 51 -12 55 -17 3 -23 -2
-23 -15z"/>
<path d="M4675 2020 c21 -24 26 -25 19 -6 -3 8 -13 17 -22 21 -13 5 -13 2 3
-15z"/>
<path d="M6110 2020 c0 -6 8 -13 18 -16 9 -3 26 -10 37 -15 13 -7 10 -1 -8 15
-30 27 -47 33 -47 16z"/>
<path d="M4545 2010 c-3 -5 -2 -10 4 -10 5 0 13 5 16 10 3 6 2 10 -4 10 -5 0
-13 -4 -16 -10z"/>
<path d="M6059 2013 c-9 -2 -21 -15 -28 -29 -6 -13 -19 -27 -28 -31 -24 -8
-53 -34 -53 -46 0 -6 9 -1 20 10 41 45 91 38 123 -16 20 -34 14 -41 -33 -41
-43 0 -61 -16 -58 -54 2 -19 8 -26 24 -26 18 0 21 4 16 22 -5 19 -2 21 26 15
30 -6 37 -1 33 26 0 4 4 7 9 7 34 0 -11 88 -52 102 -25 9 -28 13 -17 22 14 11
44 47 38 45 -2 -1 -11 -3 -20 -6z"/>
<path d="M3321 1986 c-10 -12 -8 -22 8 -53 26 -51 40 -61 76 -52 17 3 22 7 13
8 -17 1 -47 46 -58 85 -7 25 -24 30 -39 12z"/>
<path d="M3466 1989 c-3 -8 -6 -31 -8 -51 -3 -32 -2 -35 14 -27 26 14 34 57
15 77 -14 13 -17 13 -21 1z"/>
<path d="M3844 1965 c-3 -14 -3 -33 2 -42 7 -16 8 -15 11 5 3 12 7 22 9 22 12
0 31 -27 36 -51 4 -22 0 -28 -29 -38 -29 -11 -33 -16 -33 -49 0 -20 5 -44 10
-52 7 -11 10 0 10 36 0 52 9 64 47 64 23 0 73 -59 73 -87 0 -38 40 -27 54 15
7 18 14 31 17 28 3 -3 3 9 1 27 -4 23 -7 27 -11 15 -6 -17 -7 -16 -19 2 -10
16 -10 20 0 20 7 0 21 13 30 29 13 24 13 29 2 24 -9 -3 -14 2 -14 15 0 12 -4
24 -10 27 -6 4 -10 -7 -10 -24 0 -25 -4 -31 -22 -31 -13 0 -18 -4 -13 -8 12
-9 17 -72 6 -72 -10 0 -25 28 -25 50 -1 8 -12 17 -26 20 -14 3 -30 15 -35 27
-15 29 -36 53 -46 53 -5 0 -11 -11 -15 -25z"/>
<path d="M2760 1934 c0 -33 -5 -51 -17 -61 -14 -10 -14 -13 -3 -11 12 2 16
-11 20 -57 5 -65 20 -54 20 16 0 35 3 39 24 39 15 0 33 -11 46 -27 47 -62 65
-83 72 -83 14 0 8 28 -7 33 -8 4 -23 23 -34 45 -11 21 -27 44 -36 52 -14 12
-14 15 6 36 12 13 25 22 28 20 4 -3 11 7 18 20 10 21 9 24 -9 24 -10 0 -17 -4
-13 -9 7 -13 -40 -62 -56 -59 -7 2 -14 -4 -15 -12 -3 -32 -5 -35 -14 -20 -5 8
-10 32 -10 52 0 20 -4 40 -10 43 -6 4 -10 -12 -10 -41z"/>
<path d="M3019 1915 c-19 -45 -27 -55 -48 -56 -24 -2 -24 -2 -3 -6 26 -5 25
-1 8 -51 -12 -32 -12 -43 -2 -51 16 -13 32 -2 45 32 9 24 16 27 55 27 25 0 48
5 51 10 4 6 11 8 16 5 5 -4 9 1 9 9 0 9 -6 13 -13 10 -8 -3 -19 1 -25 9 -7 8
-23 12 -36 10 -22 -5 -23 -3 -19 45 2 28 -1 53 -6 56 -5 3 -19 -19 -32 -49z"/>
<path d="M4967 1953 c-26 -13 -14 -20 42 -25 l34 -3 -39 -47 c-21 -25 -48 -48
-59 -50 -19 -3 -20 -11 -20 -118 l0 -115 115 0 115 0 3 28 c2 20 9 27 24 27
35 0 95 41 117 80 43 77 16 177 -60 219 -33 19 -51 21 -144 19 -58 -2 -116 -8
-128 -15z m260 -49 c25 -16 37 -36 47 -79 7 -29 7 -28 -31 13 -27 30 -48 44
-73 48 l-35 5 39 -15 c21 -8 43 -21 48 -28 14 -20 1 -91 -18 -105 -34 -25 -44
-16 -44 37 0 36 -4 50 -14 50 -16 0 -29 27 -20 42 4 6 1 9 -7 6 -8 -3 -13 -12
-11 -22 2 -12 -5 -16 -28 -16 -35 0 -40 17 -7 30 12 5 16 9 8 9 -23 1 7 30 43
40 35 10 71 5 103 -15z m-231 -71 c-10 -10 -19 5 -10 18 6 11 8 11 12 0 2 -7
1 -15 -2 -18z m7 -72 c8 -37 49 -85 87 -101 16 -7 30 -16 30 -20 0 -4 -36 -7
-80 -7 l-80 0 0 78 c0 71 2 79 19 79 12 0 20 -9 24 -29z m80 -5 c-3 -5 -1 -6
5 -2 12 7 35 -29 30 -46 -5 -14 -68 49 -68 68 0 12 4 12 19 2 11 -7 17 -16 14
-22z m37 18 c0 -14 -3 -15 -17 -3 -10 7 -20 15 -22 16 -2 2 5 3 17 3 14 0 22
-6 22 -16z m116 -46 c4 -6 3 -8 -3 -5 -6 4 -13 1 -16 -7 -7 -19 -57 -27 -57
-10 0 8 9 14 19 14 11 0 23 5 26 10 8 13 22 13 31 -2z"/>
<path d="M4686 1935 c-9 -26 -7 -32 5 -12 6 10 9 21 6 23 -2 3 -7 -2 -11 -11z"/>
<path d="M3491 1864 c0 -11 3 -14 6 -6 3 7 2 16 -1 19 -3 4 -6 -2 -5 -13z"/>
<path d="M3737 1853 c-4 -3 -7 -28 -7 -55 0 -26 -4 -48 -10 -48 -5 0 -25 9
-45 20 -45 25 -59 26 -46 2 7 -13 4 -23 -15 -41 -13 -13 -24 -31 -24 -40 0
-20 -39 -46 -51 -34 -5 5 -11 22 -15 39 -5 24 0 37 23 64 21 25 23 32 10 27
-10 -4 -25 -7 -32 -7 -15 0 -45 -27 -45 -40 0 -5 7 -7 15 -4 11 5 15 -1 15
-25 0 -18 7 -43 16 -56 9 -13 12 -30 8 -36 -5 -9 4 -10 36 -5 28 4 48 2 59 -6
15 -12 15 -11 0 7 -57 68 -14 132 83 126 10 -1 25 -15 34 -32 16 -32 15 -35
-16 -51 -3 -2 -12 -16 -21 -33 -11 -22 -22 -29 -38 -28 -13 2 -20 -1 -16 -7 3
-6 13 -10 21 -10 8 0 13 -6 12 -12 -2 -7 9 -14 23 -16 22 -3 28 2 33 24 6 21
9 25 16 14 5 -8 6 -18 4 -22 -3 -4 2 -5 11 -2 9 4 22 -1 31 -12 15 -18 15 -18
8 1 -4 11 -9 36 -12 55 -3 19 -11 41 -19 49 -13 12 -13 15 1 23 9 5 16 14 16
21 0 7 -4 6 -10 -3 -9 -13 -12 -12 -25 4 -19 25 -19 36 0 36 12 0 15 13 15 60
0 52 -3 60 -18 60 -10 0 -22 -3 -25 -7z"/>
<path d="M3250 1830 c0 -5 7 -7 15 -4 8 4 15 8 15 10 0 2 -7 4 -15 4 -8 0 -15
-4 -15 -10z"/>
<path d="M3368 1833 c7 -3 16 -2 19 1 4 3 -2 6 -13 5 -11 0 -14 -3 -6 -6z"/>
<path d="M3811 1783 c0 -12 -4 -30 -7 -40 -5 -17 -5 -17 6 0 6 10 9 28 7 40
-4 22 -4 22 -6 0z"/>
<path d="M6356 1768 c-9 -12 -16 -31 -16 -41 0 -14 3 -16 20 -7 13 7 19 19 17
40 -1 17 -3 30 -4 30 -1 0 -9 -10 -17 -22z"/>
<path d="M1144 1769 c-3 -6 -1 -16 5 -22 8 -8 11 -5 11 11 0 24 -5 28 -16 11z"/>
<path d="M1900 1762 c0 -21 -44 -52 -74 -53 -19 -1 -24 -3 -13 -6 31 -8 66 6
83 32 9 14 14 28 10 32 -3 3 -6 1 -6 -5z"/>
<path d="M3166 1761 c-3 -5 1 -11 9 -15 8 -3 15 -1 15 4 0 13 -18 22 -24 11z"/>
<path d="M2730 1742 c0 -4 10 -13 23 -21 22 -14 22 -14 3 8 -20 22 -26 25 -26
13z"/>
<path d="M2799 1722 c11 -8 11 -10 0 -15 -11 -4 -11 -5 1 -6 8 0 24 4 35 9 16
7 17 9 3 9 -9 1 -25 4 -35 7 -13 4 -15 3 -4 -4z"/>
<path d="M3027 1702 c-21 -13 -27 -24 -27 -52 l1 -35 13 31 c8 17 24 38 36 47
30 21 10 29 -23 9z"/>
<path d="M2966 1691 c4 -8 11 -28 15 -45 6 -29 7 -29 8 -5 1 14 -6 34 -15 45
-8 10 -12 13 -8 5z"/>
<path d="M3149 1688 c7 -10 11 -25 7 -33 -3 -8 -1 -15 5 -15 7 0 9 -13 7 -32
l-5 -32 28 34 c29 35 38 57 18 44 -6 -3 -25 7 -42 22 -17 16 -25 21 -18 12z"/>
<path d="M3893 1693 c9 -2 23 -2 30 0 6 3 -1 5 -18 5 -16 0 -22 -2 -12 -5z"/>
<path d="M3995 1685 l30 -14 -30 1 c-30 2 -117 -46 -97 -53 6 -2 12 -24 14
-49 l4 -45 49 0 c58 0 72 18 21 25 -29 4 -34 8 -26 20 5 8 10 25 10 38 0 17 6
22 26 22 14 0 34 -4 44 -10 10 -5 25 -7 33 -4 27 10 -58 85 -95 84 -7 -1 1 -7
17 -15z m-35 -79 c0 -13 -7 -29 -15 -36 -13 -11 -15 -7 -15 22 0 19 3 38 6 41
12 11 24 -3 24 -27z"/>
<path d="M2811 1648 c0 -18 3 -26 6 -18 3 8 9 17 13 20 4 3 2 11 -6 18 -12 11
-14 8 -13 -20z"/>
<path d="M4442 1658 c-18 -18 -16 -138 3 -138 22 0 39 40 36 85 -2 47 -20 72
-39 53z"/>
<path d="M2903 1633 c9 -9 20 -13 24 -9 4 4 1 11 -7 16 -25 16 -35 11 -17 -7z"/>
<path d="M3421 1563 c2 -84 16 -171 18 -115 1 12 5 22 9 22 5 0 8 10 8 21 -1
25 34 52 41 31 8 -21 23 -2 23 28 0 38 -14 45 -30 14 -20 -37 -35 -24 -36 32
-1 38 -5 50 -18 52 -15 3 -17 -6 -15 -85z"/>
<path d="M2777 1633 c-4 -3 -7 -19 -7 -34 0 -32 31 -59 68 -59 14 0 21 -4 16
-11 -3 -6 1 -10 12 -9 34 4 41 0 52 -25 14 -30 8 -49 -21 -63 l-22 -11 22 0
c13 -1 29 9 39 24 9 14 20 23 24 20 4 -2 5 7 2 21 -3 18 -16 30 -43 41 -24 9
-36 20 -32 27 4 8 3 8 -6 0 -10 -9 -21 -9 -44 0 -41 14 -49 25 -43 59 5 26 -3
35 -17 20z"/>
<path d="M4285 1631 c-6 -11 9 -23 19 -14 9 9 7 23 -3 23 -6 0 -12 -4 -16 -9z"/>
<path d="M1382 1610 c0 -14 2 -19 5 -12 2 6 2 18 0 25 -3 6 -5 1 -5 -13z"/>
<path d="M4320 1610 c0 -47 54 -111 80 -95 10 6 -58 115 -72 115 -5 0 -8 -9
-8 -20z"/>
<path d="M4027 1593 c-4 -3 -7 -11 -7 -17 0 -6 5 -5 12 2 6 6 9 14 7 17 -3 3
-9 2 -12 -2z"/>
<path d="M3150 1548 c0 -13 -7 -34 -16 -46 -9 -13 -13 -26 -9 -30 4 -4 10 -1
12 6 3 7 11 19 19 26 16 17 19 52 4 61 -6 3 -10 -4 -10 -17z"/>
<path d="M1353 1549 c-6 -6 -26 -14 -45 -18 l-33 -7 32 -17 c39 -21 63 -21 88
-3 16 12 12 13 -36 9 l-54 -5 33 21 c17 11 32 23 32 26 0 8 -5 6 -17 -6z"/>
<path d="M3691 1504 c0 -11 3 -14 6 -6 3 7 2 16 -1 19 -3 4 -6 -2 -5 -13z"/>
<path d="M2747 1499 c7 -7 15 -10 18 -7 3 3 -2 9 -12 12 -14 6 -15 5 -6 -5z"/>
<path d="M3806 1501 c-3 -5 1 -11 9 -15 9 -3 15 0 15 9 0 16 -16 20 -24 6z"/>
<path d="M2761 1465 c-1 -21 12 -47 23 -46 20 3 26 -1 27 -16 0 -15 2 -15 8 2
6 14 2 26 -13 41 -11 11 -24 19 -28 17 -3 -2 -9 3 -11 9 -3 7 -6 4 -6 -7z"/>
<path d="M4430 1440 c0 -5 5 -10 10 -10 6 0 10 5 10 10 0 6 -4 10 -10 10 -5 0
-10 -4 -10 -10z"/>
<path d="M2830 1351 c0 -5 7 -12 16 -15 14 -5 15 -4 4 9 -14 17 -20 19 -20 6z"/>
<path d="M886 1334 c-23 -23 -20 -30 4 -9 11 10 20 20 20 22 0 7 -9 2 -24 -13z"/>
<path d="M2878 1323 c6 -2 18 -2 25 0 6 3 1 5 -13 5 -14 0 -19 -2 -12 -5z"/>
<path d="M4154 1277 c-2 -7 -3 -60 -2 -118 l3 -104 115 0 115 0 0 115 0 115
-113 3 c-87 2 -114 0 -118 -11z m196 -107 l0 -80 -80 0 -80 0 0 80 0 80 80 0
80 0 0 -80z"/>
<path d="M5870 1171 c0 -14 39 -20 49 -7 6 8 1 12 -20 13 -16 1 -29 -2 -29 -6z"/>
<path d="M1925 1132 c-59 -20 -60 -25 -50 -150 l7 -83 54 -24 55 -24 61 19
c53 16 65 17 78 6 13 -12 17 -11 32 9 16 21 16 24 2 29 -23 9 -31 7 -14 -4 11
-7 12 -12 3 -21 -16 -16 -36 -1 -30 22 3 11 1 19 -4 19 -5 0 -9 27 -9 61 0 54
-3 64 -29 90 -16 16 -39 29 -50 29 -12 0 -21 4 -21 10 0 23 -36 28 -85 12z
m100 -134 c1 -15 -1 -25 -4 -23 -2 3 -12 -2 -22 -11 -24 -22 -39 -10 -39 30 0
32 2 34 33 32 28 -1 32 -5 32 -28z"/>
<path d="M2190 1138 c0 -7 5 -20 10 -28 8 -12 10 -11 10 7 0 12 -4 25 -10 28
-5 3 -10 0 -10 -7z"/>
<path d="M5858 1143 c7 -3 16 -2 19 1 4 3 -2 6 -13 5 -11 0 -14 -3 -6 -6z"/>
<path d="M517 1058 c45 -22 37 -78 -11 -78 -27 0 -86 -36 -86 -52 1 -9 5 -8
13 3 14 19 50 39 69 39 10 0 12 -11 10 -39 -2 -21 0 -41 5 -44 4 -3 7 11 5 32
-3 29 2 42 22 62 17 18 22 29 15 39 -14 24 -10 33 9 19 15 -13 16 -12 3 3 -7
10 -17 16 -21 13 -5 -3 -11 -1 -15 5 -3 5 -14 10 -23 9 -13 0 -12 -3 5 -11z"/>
<path d="M2248 1059 c4 -4 16 -9 27 -12 11 -3 -5 -5 -35 -6 -40 -1 -51 -4 -40
-11 24 -16 66 -12 91 9 l23 18 -37 5 c-20 2 -34 1 -29 -3z"/>
<path d="M428 1054 c-5 -4 -8 -21 -8 -38 0 -21 3 -27 11 -19 6 6 9 23 7 38 -2
15 -6 23 -10 19z"/>
<path d="M2388 1053 c6 -2 18 -2 25 0 6 3 1 5 -13 5 -14 0 -19 -2 -12 -5z"/>
<path d="M1702 967 c-9 -10 -4 -12 23 -9 19 2 32 8 29 13 -8 13 -40 11 -52 -4z"/>
<path d="M2891 960 c-10 -6 -12 -20 -6 -56 4 -27 8 -61 8 -76 2 -23 7 -28 28
-28 14 0 34 10 45 22 15 18 16 20 2 9 -15 -11 -19 -11 -24 5 -3 11 -10 29 -15
42 -5 13 -7 33 -3 46 6 26 -15 49 -35 36z"/>
<path d="M1775 945 c-19 -15 -19 -15 5 -10 14 4 38 2 52 -4 22 -8 26 -8 21 4
-3 8 -11 15 -18 15 -7 0 -19 2 -27 5 -7 3 -22 -1 -33 -10z"/>
<path d="M2824 896 c-7 -28 18 -81 43 -90 13 -5 11 -1 -7 19 -16 17 -24 37
-24 60 0 41 -3 44 -12 11z"/>
<path d="M1722 865 c0 -16 2 -22 5 -12 2 9 2 23 0 30 -3 6 -5 -1 -5 -18z"/>
<path d="M537 859 c7 -7 15 -10 18 -7 3 3 -2 9 -12 12 -14 6 -15 5 -6 -5z"/>
<path d="M1163 834 c15 -8 27 -20 27 -26 0 -6 3 -8 7 -5 9 10 -27 47 -46 47
-10 -1 -5 -7 12 -16z"/>
<path d="M465 830 c3 -5 18 -10 33 -10 21 0 24 2 12 10 -20 13 -53 13 -45 0z"/>
<path d="M2484 814 c-10 -8 -13 -12 -5 -8 8 4 28 11 45 15 29 6 29 7 5 8 -14
1 -34 -6 -45 -15z"/>
<path d="M1793 783 c9 -2 23 -2 30 0 6 3 -1 5 -18 5 -16 0 -22 -2 -12 -5z"/>
<path d="M1950 779 c0 -5 11 -9 25 -9 14 0 25 2 25 4 0 2 -11 6 -25 8 -14 3
-25 1 -25 -3z"/>
<path d="M1200 590 c0 -5 5 -10 11 -10 5 0 7 5 4 10 -3 6 -8 10 -11 10 -2 0
-4 -4 -4 -10z"/>
<path d="M1228 533 c7 -3 16 -2 19 1 4 3 -2 6 -13 5 -11 0 -14 -3 -6 -6z"/>
<path d="M2068 493 c6 -2 18 -2 25 0 6 3 1 5 -13 5 -14 0 -19 -2 -12 -5z"/>
<path d="M1820 420 c-6 -11 -8 -20 -6 -20 3 0 10 9 16 20 6 11 8 20 6 20 -3 0
-10 -9 -16 -20z"/>
<path d="M1705 400 c3 -5 11 -10 16 -10 6 0 7 5 4 10 -3 6 -11 10 -16 10 -6 0
-7 -4 -4 -10z"/>
<path d="M993 388 c15 -5 27 -14 27 -19 0 -5 5 -9 10 -9 6 0 5 8 -2 20 -8 12
-23 20 -38 19 l-25 -1 28 -10z"/>
<path d="M1082 367 c-12 -13 -22 -31 -22 -40 0 -9 -4 -17 -10 -17 -5 0 -1 -10
10 -22 11 -13 27 -31 35 -40 9 -11 28 -18 48 -18 l32 1 -40 14 c-45 16 -65 38
-65 72 l0 24 22 -21 c16 -15 35 -20 74 -20 33 0 54 -5 57 -12 3 -7 6 -3 6 9 1
21 -2 22 -52 17 -44 -4 -57 -2 -78 15 l-24 21 24 20 c13 11 19 20 14 20 -5 0
-19 -10 -31 -23z"/>
<path d="M1748 383 c6 -2 18 -2 25 0 6 3 1 5 -13 5 -14 0 -19 -2 -12 -5z"/>
<path d="M980 353 c0 -5 10 -18 23 -29 l22 -19 -20 25 c-11 14 -21 27 -22 29
-2 2 -3 0 -3 -6z"/>
<path d="M4662 283 c2 -10 14 -19 28 -21 14 -2 35 -13 48 -25 12 -11 22 -17
22 -12 0 12 -53 55 -67 55 -7 0 -13 5 -13 10 0 6 -5 10 -11 10 -6 0 -9 -8 -7
-17z"/>
<path d="M1199 253 c-13 -16 -12 -17 4 -4 16 13 21 21 13 21 -2 0 -10 -8 -17
-17z"/>
<path d="M6245 90 c-3 -6 1 -7 9 -4 18 7 21 14 7 14 -6 0 -13 -4 -16 -10z"/>
<path d="M1661 11 c-8 -5 1 -8 27 -7 23 0 35 4 29 8 -16 10 -39 10 -56 -1z"/>
</g>
</svg>
